<?xml version="1.0" encoding="utf-8"?>
<!-- Generator: Adobe Illustrator 22.1.0, SVG Export Plug-In . SVG Version: 6.00 Build 0)  -->
<svg version="1.1" id="Layer_1" xmlns="http://www.w3.org/2000/svg" xmlns:xlink="http://www.w3.org/1999/xlink" x="0px" y="0px"
	 width="216px" height="160px" viewBox="0 0 216 160" style="enable-background:new 0 0 216 160;" xml:space="preserve">
<style type="text/css">
	.st0{fill:#D4D3D7;}
</style>
<path class="st0" d="M159.3,34.5l-24.2-24.2c-2.6-2.6-6.1-4.1-9.8-4.1H66.5c-7.6,0-13.8,6.2-13.8,13.9V140c0,7.6,6.2,13.8,13.8,13.8
	h83c7.6,0,13.8-6.2,13.8-13.8V44.2C163.3,40.6,161.9,37,159.3,34.5z M148.4,43.1h-21.9V21.2L148.4,43.1z M66.5,140V20.1h46.1v30
	c0,3.8,3.1,6.9,6.9,6.9h30v83H66.5z"/>
</svg>
