<?xml version="1.0" encoding="utf-8"?>
<!-- Generator: Adobe Illustrator 16.0.0, SVG Export Plug-In . SVG Version: 6.00 Build 0)  -->
<!DOCTYPE svg PUBLIC "-//W3C//DTD SVG 1.1//EN" "http://www.w3.org/Graphics/SVG/1.1/DTD/svg11.dtd">
<svg version="1.1" id="Layer_1" xmlns="http://www.w3.org/2000/svg" xmlns:xlink="http://www.w3.org/1999/xlink" x="0px" y="0px"
	 width="216px" height="160px" viewBox="0 0 216 160" enable-background="new 0 0 216 160" xml:space="preserve">
<path fill-rule="evenodd" clip-rule="evenodd" fill="#FFFFFF" d="M52,49.537v81.508c0,6.053,4.925,10.978,11.039,10.978h91.125
	c6.113,0,11.038-4.925,11.038-10.978V49.537c0-6.058-8.655-11.154-14.769-11.154h-2.377V26.388c0-4.986-2.946-8.888-7.981-8.888
	h-1.415c-4.986,0-7.584,3.902-7.584,8.888v13.586l-45.115,0.166V28.201c0-5.041-2.775-10.701-7.811-10.701h-1.133
	c-5.038,0-8.037,4.079-8.037,9.109v11.95h-2.377C60.49,38.56,52,43.479,52,49.537z M74.527,26.101c0-1.47,1.473-2.885,2.943-2.885
	h0.453c1.415,0,2.377,1.36,2.377,2.775l0.113,21.679c0,1.415-0.962,2.72-2.435,2.72h-0.677c-1.473,0-2.83-1.078-2.83-2.493
	L74.527,26.101z M136.736,25.824c0-1.415,1.354-2.609,2.77-2.609l0.846,0.055c1.415,0,2.211,1.139,2.211,2.554v21.618
	c0,1.415-1.36,2.377-2.775,2.377h-0.453c-1.471,0-2.598-1.133-2.598-2.548V25.824z M68.98,62.781h22.641v16.98H68.98V62.781z
	 M97.281,62.781h22.641v16.98H97.281V62.781z M125.582,62.781h22.641v16.98h-22.641V62.781z M68.98,85.422h22.641v16.98H68.98
	V85.422z M97.281,85.422h22.641v16.98H97.281V85.422z M125.582,85.422h22.641v16.98h-22.641V85.422z M68.98,108.063h22.641v16.979
	H68.98V108.063z M97.281,108.063h22.641v16.979H97.281V108.063z M125.582,108.063h22.641v16.979h-22.641V108.063z"/>
</svg>
