<svg width="371" height="278" viewBox="0 0 371 278" fill="none" xmlns="http://www.w3.org/2000/svg">
<path d="M287.525 208.5H303.756C308.394 208.5 313.031 203.867 313.031 199.233V32.4333C313.031 27.8 308.394 23.1667 303.756 23.1667H287.525C282.887 23.1667 278.25 27.8 278.25 32.4333V199.233C278.25 203.867 282.887 208.5 287.525 208.5ZM148.4 208.5H164.631C169.269 208.5 173.906 203.867 173.906 199.233V55.6C173.906 50.9667 169.269 46.3333 164.631 46.3333H148.4C143.763 46.3333 139.125 50.9667 139.125 55.6V199.233C139.125 203.867 143.763 208.5 148.4 208.5ZM217.962 208.5H234.194C238.831 208.5 243.469 203.867 243.469 199.233V101.933C243.469 97.3 238.831 92.6667 234.194 92.6667H217.962C213.325 92.6667 208.688 97.3 208.688 101.933V199.233C208.688 203.867 213.325 208.5 217.962 208.5ZM359.406 243.25H34.7812V11.5833C34.7812 5.18354 29.593 0 23.1875 0H11.5938C5.1882 0 0 5.18354 0 11.5833V254.833C0 267.626 10.3837 278 23.1875 278H359.406C365.812 278 371 272.816 371 266.417V254.833C371 248.434 365.812 243.25 359.406 243.25ZM78.8375 208.5H95.0687C99.7062 208.5 104.344 203.867 104.344 199.233V148.267C104.344 143.633 99.7062 139 95.0687 139H78.8375C74.2 139 69.5625 143.633 69.5625 148.267V199.233C69.5625 203.867 74.2 208.5 78.8375 208.5Z" fill="#371376"/>
</svg>
