<svg xmlns="http://www.w3.org/2000/svg" xmlns:xlink="http://www.w3.org/1999/xlink" version="1.1" id="Layer_1" x="0" y="0" width="216" height="160" viewBox="0 0 216 160" enable-background="new 0 0 216 160" xml:space="preserve">
  <path fill="#371376" d="M168.5 49.15l-6.1-6.1c-2.1-2-4.6-3-7.4-3 -2.9 0-5.3 1-7.3 3l-39.7 39.6 -39.6-39.6c-2-2-4.5-3-7.3-3 -2.8 0-5.3 1-7.4 3l-6 6.1c-2.1 2.1-3.1 4.5-3.1 7.4 0 2.9 1 5.4 3.1 7.3l53 53c2 2.1 4.4 3.1 7.3 3.1s5.4-1 7.4-3.1l53-53c2-2 3-4.5 3-7.3C171.5 53.75 170.5 51.25 168.5 49.15z"/>
</svg>
