<svg width="73" height="73" viewBox="0 0 73 73" fill="none" xmlns="http://www.w3.org/2000/svg">
<path d="M25.3504 9.01094L26.7762 11.4918C27.1754 12.1762 27.375 12.9604 27.375 13.7588V19.6615C27.375 20.2176 27.6031 20.7594 27.9881 21.1443C28.8721 22.0283 30.3406 21.957 31.1248 20.9732L33.0639 18.5494C33.734 17.7082 34.9031 17.4516 35.8584 17.9363L38.0256 19.0199C38.5104 19.2623 39.0522 19.3906 39.5939 19.3906C40.5207 19.3906 41.4189 19.0199 42.0748 18.3641L42.6309 17.808C43.0443 17.3945 43.6717 17.2947 44.1992 17.5514L48.3625 19.633C49.4746 20.1891 50.159 21.3154 50.159 22.5559C50.159 24.0529 49.1467 25.3504 47.6924 25.7211L42.6451 26.9758C41.59 27.2324 40.4922 27.1896 39.4514 26.8475L34.8889 25.3219C34.4184 25.165 33.9336 25.0795 33.4346 25.0795C32.4365 25.0795 31.467 25.4074 30.6686 26.0062L25.0938 30.2266C23.6537 31.3102 22.8125 32.9926 22.8125 34.7891V38.7812C22.8125 42.5596 25.8779 45.625 29.6562 45.625H34.2188C35.4734 45.625 36.5 46.6516 36.5 47.9062V54.75C36.5 57.2736 38.5389 59.3125 41.0625 59.3125C42.5025 59.3125 43.857 58.6424 44.7125 57.4875L48.3625 52.6256C49.5459 51.043 50.1875 49.1182 50.1875 47.1506V45.4254C50.1875 44.8693 50.5582 44.3846 51.1 44.2562L51.8557 44.0709C53.5523 43.6432 54.75 42.1176 54.75 40.3639C54.75 39.3516 54.3508 38.382 53.6379 37.6691L48.8615 32.8928C48.334 32.3652 48.334 31.5098 48.8615 30.9822C49.6742 30.1695 50.8719 29.8844 51.9697 30.2551L53.9801 30.9252C55.7338 31.5098 57.6443 30.7113 58.4713 29.0717C58.9703 28.0736 60.0682 27.5318 61.166 27.76L65.0727 28.5441C61.5937 16.0258 50.1162 6.84375 36.5 6.84375C32.5506 6.84375 28.8008 7.61367 25.3504 9.01094ZM0 36.5C0 26.8196 3.84553 17.5357 10.6906 10.6906C17.5357 3.84553 26.8196 0 36.5 0C46.1804 0 55.4643 3.84553 62.3094 10.6906C69.1545 17.5357 73 26.8196 73 36.5C73 46.1804 69.1545 55.4643 62.3094 62.3094C55.4643 69.1545 46.1804 73 36.5 73C26.8196 73 17.5357 69.1545 10.6906 62.3094C3.84553 55.4643 0 46.1804 0 36.5Z" fill="#371376"/>
</svg>
