<svg xmlns="http://www.w3.org/2000/svg" version="1.1" x="0" y="0" width="13.7" height="13.7" viewBox="0 0 13.7 13.7" enable-background="new 0 0 13.714 13.714" xml:space="preserve"><path fill="#371376" d="M12.8 3.4c0.6 1.1 0.9 2.2 0.9 3.4s-0.3 2.4-0.9 3.4c-0.6 1.1-1.4 1.9-2.5 2.5 -1.1 0.6-2.2 0.9-3.4 0.9s-2.4-0.3-3.4-0.9c-1-0.6-1.9-1.4-2.5-2.5C0.3 9.2 0 8.1 0 6.9s0.3-2.4 0.9-3.4c0.6-1 1.4-1.9 2.5-2.5C4.5 0.3 5.6 0 6.9 0s2.4 0.3 3.4 0.9C11.4 1.5 12.2 2.4 12.8 3.4z"/><path fill="#371376" d="M42.8 3.4c0.6 1.1 0.9 2.2 0.9 3.4s-0.3 2.4-0.9 3.4c-0.6 1.1-1.4 1.9-2.5 2.5 -1.1 0.6-2.2 0.9-3.4 0.9s-2.4-0.3-3.4-0.9c-1-0.6-1.9-1.4-2.5-2.5C30.3 9.2 30 8.1 30 6.9s0.3-2.4 0.9-3.4c0.6-1 1.4-1.9 2.5-2.5C34.5 0.3 35.6 0 36.9 0s2.4 0.3 3.4 0.9C41.4 1.5 42.2 2.4 42.8 3.4zM39.3 2.7C38.6 2.2 37.7 2 36.9 2s-1.7 0.2-2.4 0.7 -1.3 1-1.8 1.8S32 6 32 6.9s0.2 1.7 0.7 2.4 1 1.3 1.8 1.8 1.6 0.7 2.4 0.7 1.7-0.2 2.4-0.7 1.3-1 1.8-1.8 0.7-1.6 0.7-2.4 -0.2-1.7-0.7-2.4S40 3.1 39.3 2.7z"/></svg>