<svg xmlns="http://www.w3.org/2000/svg" version="1.1" x="0" y="0" width="216" height="146" viewBox="0 0 216 146" enable-background="new 0 0 216 146" xml:space="preserve"><rect x="48" y="52.1" fill="#555555" width="26.9" height="80.7"/><path fill="#555555" d="M163.1 59.4c-5.6-6.2-13.1-9.2-22.4-9.2 -3.4 0-6.5 0.4-9.3 1.3 -2.8 0.8-5.2 2-7.1 3.5 -1.9 1.5-3.5 2.9-4.6 4.2 -1.1 1.2-2.1 2.7-3.2 4.3V52.1H89.7l0.1 3.9c0.1 2.6 0.1 10.6 0.1 24.1 0 13.5-0.1 31-0.2 52.7h26.8V87.7c0-2.8 0.3-5 0.9-6.6 1.1-2.8 2.9-5.1 5.2-7 2.3-1.9 5.2-2.8 8.6-2.8 4.7 0 8.1 1.6 10.3 4.8 2.2 3.2 3.3 7.7 3.3 13.4v43.2h26.8V86.5C171.6 74.6 168.7 65.6 163.1 59.4zM61.6 13.2c-4.5 0-8.2 1.3-11 4 -2.8 2.6-4.2 6-4.2 10 0 4 1.4 7.3 4.1 9.9 2.7 2.7 6.3 4 10.8 4h0.2c4.6 0 8.2-1.3 11-4 2.8-2.7 4.2-6 4.1-9.9 -0.1-4-1.4-7.3-4.2-10C69.7 14.5 66.1 13.2 61.6 13.2z"/></svg>