<svg xmlns="http://www.w3.org/2000/svg" xmlns:xlink="http://www.w3.org/1999/xlink" version="1.1" id="Layer_1" x="0" y="0" width="216" height="160" viewBox="0 0 216 160" enable-background="new 0 0 216 160" xml:space="preserve">
  <path fill="#371376" d="M119.36 111.18H96.63c-1.5 0-2.86 0.55-3.95 1.64 -1.09 1.23-1.64 2.59-1.64 4.09v19.87c0 1.5 0.55 2.86 1.64 3.95 1.09 1.23 2.45 1.78 3.95 1.78h22.74c1.5 0 2.86-0.55 3.95-1.64 1.09-1.09 1.64-2.45 1.64-3.95v-20.02c0-1.5-0.55-2.86-1.64-3.95C122.22 111.72 120.86 111.18 119.36 111.18L119.36 111.18zM119.36 111.18l6.81-92.04c-1.09-1.09-2.45-1.64-3.95-1.64h-28.46c-1.5 0-2.86 0.55-3.95 1.64 -1.09 1.23-1.5 2.45-1.5 4.09l2.45 68.08c0 1.5 0.69 2.86 1.78 3.95 1.23 1.22 2.59 1.77 4.09 1.77h22.74c1.5 0 2.86-0.55 4.09-1.64 1.09-1.09 1.77-2.45 1.77-3.95l2.45-68.21c0.14-1.64-0.41-2.86-1.5-4.09l0 0L119.36 111.18z"/>
</svg>
