<svg xmlns="http://www.w3.org/2000/svg" fill="none" viewBox="0 0 40 40">
  <g clip-path="url(#a)">
    <path fill="#C8194B" fill-rule="evenodd" d="M20 40c11.0457 0 20-8.9543 20-20S31.0457 0 20 0 0 8.9543 0 20s8.9543 20 20 20Zm-9.6696-10.0002h4.1464V16.6471h-4.1464v13.3527ZM10 12.4016c0 1.3259 1.0754 2.4241 2.4013 2.4241 1.3255 0 2.4014-1.0982 2.4014-2.4241 0-.6369-.253-1.2477-.7034-1.698-.4503-.4504-1.0611-.7034-1.698-.7034-.6368 0-1.2476.253-1.698.7034-.4503.4503-.7033 1.0611-.7033 1.698Zm15.858 17.5982H30V22.665c0-3.5893-.7714-6.3527-4.9679-6.3527-2.0174 0-3.3696 1.1071-3.9232 2.1562h-.058v-1.8214h-3.9768v13.3527h4.142v-6.6116c0-1.7411.3303-3.4241 2.4861-3.4241 2.1246 0 2.1558 1.9866 2.1558 3.5357v6.5Z" clip-rule="evenodd"/>
  </g>
  <defs>
    <clipPath id="a">
      <path fill="#fff" d="M0 0h40v40H0z"/>
    </clipPath>
  </defs>
</svg>
