<?xml version="1.0" encoding="UTF-8"?>
<svg enable-background="new 0 0 216 146" version="1.1" viewBox="0 0 216 146" xml:space="preserve" xmlns="http://www.w3.org/2000/svg">
<style type="text/css">
	.st0{fill:#2F71AC;stroke:#000000;stroke-miterlimit:10;}
	.st1{fill:#FFFFFF;}
</style>
<rect class="st0" width="216" height="146"/>
<rect class="st1" x="48" y="52.1" width="26.9" height="80.7"/>
<path class="st1" d="m163.1 59.4c-5.6-6.2-13.1-9.2-22.4-9.2-3.4 0-6.5 0.4-9.3 1.3-2.8 0.8-5.2 2-7.1 3.5s-3.5 2.9-4.6 4.2c-1.1 1.2-2.1 2.7-3.2 4.3v-11.4h-26.8l0.1 3.9c0.1 2.6 0.1 10.6 0.1 24.1s-0.1 31-0.2 52.7h26.8v-45.1c0-2.8 0.3-5 0.9-6.6 1.1-2.8 2.9-5.1 5.2-7s5.2-2.8 8.6-2.8c4.7 0 8.1 1.6 10.3 4.8s3.3 7.7 3.3 13.4v43.2h26.8v-46.2c0-11.9-2.9-20.9-8.5-27.1zm-101.5-46.2c-4.5 0-8.2 1.3-11 4-2.8 2.6-4.2 6-4.2 10s1.4 7.3 4.1 9.9c2.7 2.7 6.3 4 10.8 4h0.2c4.6 0 8.2-1.3 11-4s4.2-6 4.1-9.9c-0.1-4-1.4-7.3-4.2-10-2.7-2.7-6.3-4-10.8-4z"/>
</svg>
