<svg width="45" height="40" viewBox="0 0 45 40" fill="none" xmlns="http://www.w3.org/2000/svg">
<path d="M7.5 10C8.48891 10 9.4556 9.70676 10.2779 9.15735C11.1001 8.60794 11.741 7.82705 12.1194 6.91342C12.4978 5.99979 12.5969 4.99446 12.4039 4.02455C12.211 3.05465 11.7348 2.16373 11.0355 1.46447C10.3363 0.765206 9.44536 0.289002 8.47545 0.0960758C7.50555 -0.0968503 6.50021 0.00216641 5.58658 0.380605C4.67295 0.759043 3.89206 1.39991 3.34265 2.22215C2.79325 3.0444 2.5 4.0111 2.5 5C2.5 6.32609 3.02678 7.59785 3.96447 8.53554C4.90215 9.47322 6.17392 10 7.5 10ZM7.5 23.7563C7.49889 23.2891 7.59278 22.8265 7.77597 22.3968C7.95915 21.967 8.22782 21.579 8.56563 21.2563L14.2008 15.9375C14.3297 15.8164 14.4953 15.757 14.6391 15.6586C14.2714 14.7278 13.6325 13.929 12.8053 13.3658C11.9781 12.8026 11.0007 12.501 10 12.5H5C3.67392 12.5 2.40215 13.0268 1.46447 13.9645C0.526784 14.9022 0 16.1739 0 17.5L0 25C0 25.663 0.263392 26.2989 0.732233 26.7678C1.20107 27.2366 1.83696 27.5 2.5 27.5V37.5C2.5 38.163 2.76339 38.7989 3.23223 39.2678C3.70107 39.7366 4.33696 40 5 40H10C10.663 40 11.2989 39.7366 11.7678 39.2678C12.2366 38.7989 12.5 38.163 12.5 37.5V29.9695L8.56563 26.2563C8.22771 25.9336 7.95897 25.5456 7.77577 25.1158C7.59258 24.686 7.49875 24.2235 7.5 23.7563ZM37.5 10C38.4889 10 39.4556 9.70676 40.2779 9.15735C41.1001 8.60794 41.741 7.82705 42.1194 6.91342C42.4978 5.99979 42.5969 4.99446 42.4039 4.02455C42.211 3.05465 41.7348 2.16373 41.0355 1.46447C40.3363 0.765206 39.4454 0.289002 38.4755 0.0960758C37.5055 -0.0968503 36.5002 0.00216641 35.5866 0.380605C34.673 0.759043 33.8921 1.39991 33.3427 2.22215C32.7932 3.0444 32.5 4.0111 32.5 5C32.5 6.32609 33.0268 7.59785 33.9645 8.53554C34.9021 9.47322 36.1739 10 37.5 10ZM40 12.5H35C33.9993 12.5009 33.022 12.8024 32.1948 13.3655C31.3677 13.9286 30.7287 14.7272 30.3609 15.6578C30.5047 15.757 30.6734 15.8141 30.8 15.9383L36.4344 21.2555C36.7712 21.579 37.0391 21.9671 37.2221 22.3967C37.4052 22.8263 37.4995 23.2885 37.4995 23.7555C37.4995 24.2224 37.4052 24.6846 37.2221 25.1142C37.0391 25.5438 36.7712 25.932 36.4344 26.2555L32.5 29.9703V37.5C32.5 38.163 32.7634 38.7989 33.2322 39.2678C33.7011 39.7366 34.337 40 35 40H40C40.663 40 41.2989 39.7366 41.7678 39.2678C42.2366 38.7989 42.5 38.163 42.5 37.5V27.5C43.163 27.5 43.7989 27.2366 44.2678 26.7678C44.7366 26.2989 45 25.663 45 25V17.5C45 16.1739 44.4732 14.9022 43.5355 13.9645C42.5979 13.0268 41.3261 12.5 40 12.5ZM34.7188 23.0734L29.0844 17.7563C28.9514 17.6295 28.7841 17.5446 28.6032 17.5121C28.4224 17.4796 28.236 17.501 28.0672 17.5736C27.8984 17.6461 27.7546 17.7667 27.6538 17.9203C27.553 18.0739 27.4995 18.2538 27.5 18.4375V21.25H17.5V18.4375C17.5007 18.2537 17.4473 18.0737 17.3465 17.92C17.2458 17.7663 17.102 17.6456 16.9332 17.5729C16.7644 17.5003 16.5779 17.4788 16.397 17.5113C16.2161 17.5437 16.0487 17.6286 15.9156 17.7555L10.2812 23.0734C10.1012 23.2549 10.0001 23.5002 10.0001 23.7559C10.0001 24.0115 10.1012 24.2568 10.2812 24.4383L15.9156 29.7563C16.0487 29.8831 16.2162 29.9681 16.3972 30.0005C16.5782 30.0329 16.7647 30.0114 16.9336 29.9386C17.1024 29.8659 17.2461 29.745 17.3469 29.5912C17.4476 29.4374 17.5008 29.2573 17.5 29.0734V26.25H27.5V29.0734C27.4992 29.2573 27.5524 29.4374 27.6531 29.5912C27.7539 29.745 27.8976 29.8659 28.0664 29.9386C28.2353 30.0114 28.4218 30.0329 28.6028 30.0005C28.7838 29.9681 28.9513 29.8831 29.0844 29.7563L34.7188 24.4383C34.8988 24.2568 34.9999 24.0115 34.9999 23.7559C34.9999 23.5002 34.8988 23.2549 34.7188 23.0734Z" fill="#FFFFFF"/>
</svg>
