<svg width="48" height="48" viewBox="0 0 48 48" fill="none" xmlns="http://www.w3.org/2000/svg">
<path d="M32.9994 8.99998C32.9994 4.02936 28.9701 0 23.9995 0C19.029 0 14.9997 4.02936 14.9997 8.99998C14.9997 13.9706 19.029 18 23.9995 18C28.9701 18 32.9994 13.9706 32.9994 8.99998ZM21.8986 22.6031C16.3366 19.1981 7.32736 18.2625 2.7937 18.0046C1.27029 17.9184 0 19.079 0 20.5443V41.4318C0 42.7752 1.08654 43.8955 2.48339 43.9677C6.57643 44.1824 14.8572 44.9689 20.5805 47.8518C21.459 48.2942 22.5005 47.6914 22.5005 46.7389V23.6774C22.4996 23.2396 22.283 22.8384 21.8986 22.6031ZM45.2054 18.0046C40.6726 18.2615 31.6625 19.1981 26.1014 22.6031C25.717 22.8384 25.5004 23.2556 25.5004 23.6934V46.7361C25.5004 47.6914 26.5448 48.2952 27.426 47.8518C33.1484 44.9718 41.4245 44.1852 45.5166 43.9705C46.9135 43.8974 48 42.7771 48 41.4336V20.5443C47.9991 19.079 46.7288 17.9184 45.2054 18.0046V18.0046Z" fill="#371376"/>
</svg>
