<?xml version="1.0" encoding="utf-8"?>
<!-- Generator: Adobe Illustrator 16.0.0, SVG Export Plug-In . SVG Version: 6.00 Build 0)  -->
<!DOCTYPE svg PUBLIC "-//W3C//DTD SVG 1.1//EN" "http://www.w3.org/Graphics/SVG/1.1/DTD/svg11.dtd">
<svg version="1.1" id="Layer_1" xmlns="http://www.w3.org/2000/svg" xmlns:xlink="http://www.w3.org/1999/xlink" x="0px" y="0px"
	 width="60px" height="60px" viewBox="0 0 60 60" enable-background="new 0 0 60 60" xml:space="preserve">
<path opacity="0.6" fill="#371376" enable-background="new    " d="M27,45c0-1.7,1.3-3,3-3l0,0c1.7,0,3,1.3,3,3v12c0,1.7-1.3,3-3,3
	l0,0c-1.7,0-3-1.3-3-3V45z"/>
<path fill="#371376" d="M27,3c0-1.7,1.3-3,3-3l0,0c1.7,0,3,1.3,3,3v12c0,1.7-1.3,3-3,3l0,0c-1.7,0-3-1.3-3-3V3z"/>
<path opacity="0.4" fill="#371376" enable-background="new    " d="M45,33c-1.7,0-3-1.3-3-3l0,0c0-1.7,1.3-3,3-3h12c1.7,0,3,1.3,3,3
	l0,0c0,1.7-1.3,3-3,3H45z"/>
<path opacity="0.8" fill="#371376" enable-background="new    " d="M3,33c-1.7,0-3-1.3-3-3l0,0c0-1.7,1.3-3,3-3h12c1.7,0,3,1.3,3,3
	l0,0c0,1.7-1.3,3-3,3H3z"/>
<path opacity="0.3" fill="#371376" enable-background="new    " d="M44.5,25.1c-1.4,0.8-3.3,0.3-4.1-1.1l0,0
	c-0.801-1.4-0.301-3.3,1.1-4.1l10.4-6c1.399-0.8,3.3-0.3,4.1,1.1l0,0c0.8,1.4,0.3,3.3-1.1,4.1L44.5,25.1z"/>
<path opacity="0.72" fill="#371376" d="M8.1,46.1C6.7,46.9,4.8,46.4,4,45l0,0c-0.8-1.4-0.3-3.3,1.1-4.1l10.4-6
	c1.4-0.801,3.3-0.301,4.1,1.1l0,0c0.8,1.4,0.3,3.3-1.1,4.1L8.1,46.1z"/>
<path opacity="0.92" fill="#371376" d="M25.1,15.5c0.8,1.4,0.3,3.3-1.1,4.1l0,0c-1.4,0.8-3.3,0.3-4.1-1.1l-6-10.4
	C13.1,6.7,13.6,4.9,15,4l0,0c1.4-0.8,3.3-0.3,4.1,1.1L25.1,15.5z"/>
<path opacity="0.53" fill="#371376" d="M46.1,51.9C46.9,53.3,46.4,55.2,45,56l0,0c-1.4,0.8-3.3,0.3-4.1-1.1l-6-10.4
	C34.1,43.1,34.6,41.2,36,40.4l0,0c1.4-0.801,3.3-0.301,4.1,1.1L46.1,51.9z"/>
<path opacity="0.2" fill="#371376" enable-background="new    " d="M40.1,18.5c-0.8,1.4-2.699,1.9-4.1,1.1l0,0
	c-1.4-0.8-1.9-2.7-1.1-4.1l6-10.4C41.7,3.7,43.6,3.2,45,4l0,0c1.4,0.8,1.9,2.7,1.1,4.1L40.1,18.5z"/>
<path opacity="0.66" fill="#371376" d="M19.1,54.9C18.3,56.3,16.4,56.8,15,56l0,0c-1.4-0.8-1.9-2.7-1.1-4.1l6-10.4
	c0.8-1.4,2.7-1.9,4.1-1.1l0,0c1.4,0.8,1.9,2.699,1.1,4.1L19.1,54.9z"/>
<path opacity="0.86" fill="#371376" d="M18.5,19.9c1.4,0.8,1.9,2.7,1.1,4.1l0,0c-0.8,1.4-2.7,1.9-4.1,1.1l-10.4-6
	C3.7,18.3,3.2,16.4,4,15l0,0c0.8-1.4,2.7-1.9,4.1-1.1L18.5,19.9z"/>
<path opacity="0.46" fill="#371376" d="M54.9,40.9C56.3,41.7,56.8,43.6,56,45l0,0c-0.8,1.4-2.7,1.9-4.1,1.1l-10.4-6
	c-1.4-0.8-1.9-2.699-1.1-4.1l0,0c0.8-1.4,2.699-1.9,4.1-1.1L54.9,40.9z"/>
</svg>
