<svg xmlns="http://www.w3.org/2000/svg" fill="none" viewBox="0 0 24 24">
  <path fill="#fff" d="m21.4296 16.1327-4.375-1.875c-.1869-.0797-.3947-.0965-.5919-.0479-.1973.0487-.3734.16-.5019.3174l-1.9375 2.3672c-3.0408-1.4337-5.48795-3.8808-6.92165-6.92157L9.46888 8.0353c.15769-.12826.2693-.30439.31793-.50175.04864-.19736.03165-.40518-.04839-.59202L7.86338 2.56645c-.08784-.2014-.24322-.36585-.43932-.46497-.1961-.09912-.42065-.12671-.63491-.07801l-4.06257.93752c-.20658.0477-.39089.16402-.52285.32996-.13196.16594-.20378.37171-.20373.58373C2 13.8944 10.1212 22 20.1253 22c.2121.0001.418-.0716.584-.2036.166-.132.2824-.3163.3301-.523l.9375-4.0626c.0484-.2153.0202-.4407-.0797-.6375-.0999-.1968-.2652-.3526-.4676-.4406Z"/>
</svg>
