<?xml version="1.0" encoding="utf-8"?>
<!-- Generator: Adobe Illustrator 22.1.0, SVG Export Plug-In . SVG Version: 6.00 Build 0)  -->
<svg version="1.1" id="Layer_1" xmlns="http://www.w3.org/2000/svg" xmlns:xlink="http://www.w3.org/1999/xlink" x="0px" y="0px"
	 viewBox="0 0 384 512" style="enable-background:new 0 0 384 512;" xml:space="preserve">
<style type="text/css">
	.st0{fill:#1847BF;}
</style>
<g id="Layer_3">
	<path class="st0" d="M124.8,309.2c-1.4,0-2.9,0.2-4.2,0.7c-7.8,2.5-16,4.1-24.6,4.1s-16.8-1.6-24.6-4.1c-1.4-0.4-2.8-0.7-4.2-0.7
		C30,309.2-0.2,339.5,0,376.8c0.1,15.8,13,28.4,28.8,28.4h134.4c15.8,0,28.7-12.7,28.8-28.4C192.2,339.5,162,309.2,124.8,309.2z"/>
	<circle class="st0" cx="96" cy="232.4" r="57.6"/>
	<path class="st0" d="M355.2,98H124.8C108.9,98,96,111.3,96,127.8v27.8c14.1,0,27.1,4.1,38.4,10.7v-29.9h211.2v172.8h-38.4v-38.4
		h-76.8v38.4h-45.7c11.5,10,19.9,23.2,23.8,38.4h146.7c15.9,0,28.8-13.3,28.8-29.8v-190C384,111.3,371.1,98,355.2,98z"/>
</g>
</svg>
