<?xml version="1.0" encoding="utf-8"?>
<!-- Generator: Adobe Illustrator 22.1.0, SVG Export Plug-In . SVG Version: 6.00 Build 0)  -->
<svg version="1.1" id="Layer_1" xmlns="http://www.w3.org/2000/svg" xmlns:xlink="http://www.w3.org/1999/xlink" x="0px" y="0px"
	 viewBox="0 0 384 512" style="enable-background:new 0 0 384 512;" xml:space="preserve">
<style type="text/css">
	.st0{fill:#FFFFFF;}
</style>
<g id="Layer_1_1_" focusable="false">
	<circle class="st0" cx="117.3" cy="173" r="66"/>
	<path class="st0" d="M162.5,257.9h-4.9c-12.3,5.9-25.9,9.4-40.4,9.4s-28.1-3.5-40.4-9.4H72c-37.5,0-67.9,30.4-67.9,67.9v17
		c0,15.6,12.7,28.3,28.3,28.3h169.7c15.6,0,28.3-12.7,28.3-28.3v-17C230.4,288.3,200,257.9,162.5,257.9z"/>
	<circle class="st0" cx="287" cy="182.4" r="56.6"/>
	<path class="st0" d="M315.3,257.9H313c-8.2,2.8-16.9,4.7-26,4.7s-17.9-1.9-26-4.7h-2.2c-12,0-23.1,3.5-32.8,9.1
		c14.4,15.5,23.4,36.1,23.4,58.8v22.6c0,1.3-0.3,2.5-0.4,3.8h104c15.6,0,28.3-12.7,28.3-28.3C381.3,287.4,351.8,257.9,315.3,257.9z"
		/>
</g>
</svg>
