<svg width="55" height="73" viewBox="0 0 55 73" fill="none" xmlns="http://www.w3.org/2000/svg">
<path d="M9.125 66.1562C7.87031 66.1562 6.84375 65.1297 6.84375 63.875V9.125C6.84375 7.87031 7.87031 6.84375 9.125 6.84375H31.9375V18.25C31.9375 20.7736 33.9764 22.8125 36.5 22.8125H47.9062V63.875C47.9062 65.1297 46.8797 66.1562 45.625 66.1562H9.125ZM9.125 0C4.09199 0 0 4.09199 0 9.125V63.875C0 68.908 4.09199 73 9.125 73H45.625C50.658 73 54.75 68.908 54.75 63.875V22.0283C54.75 19.6045 53.7947 17.2805 52.0838 15.5695L39.1662 2.66621C37.4553 0.955274 35.1455 0 32.7217 0H9.125ZM17.1094 36.5C15.2131 36.5 13.6875 38.0256 13.6875 39.9219C13.6875 41.8182 15.2131 43.3438 17.1094 43.3438H37.6406C39.5369 43.3438 41.0625 41.8182 41.0625 39.9219C41.0625 38.0256 39.5369 36.5 37.6406 36.5H17.1094ZM17.1094 50.1875C15.2131 50.1875 13.6875 51.7131 13.6875 53.6094C13.6875 55.5057 15.2131 57.0312 17.1094 57.0312H37.6406C39.5369 57.0312 41.0625 55.5057 41.0625 53.6094C41.0625 51.7131 39.5369 50.1875 37.6406 50.1875H17.1094Z" fill="#371376"/>
</svg>
