<?xml version="1.0" encoding="utf-8"?>
<!-- Generator: Adobe Illustrator 16.0.0, SVG Export Plug-In . SVG Version: 6.00 Build 0)  -->
<!DOCTYPE svg PUBLIC "-//W3C//DTD SVG 1.1//EN" "http://www.w3.org/Graphics/SVG/1.1/DTD/svg11.dtd">
<svg version="1.1" id="Layer_1" xmlns="http://www.w3.org/2000/svg" xmlns:xlink="http://www.w3.org/1999/xlink" x="0px" y="0px"
	 width="10.286px" height="10.286px" viewBox="0 0 10.286 10.286" enable-background="new 0 0 10.286 10.286" xml:space="preserve">
<g>
	<path fill="#D4D3D7" d="M9.596,2.562c0.46,0.788,0.689,1.648,0.689,2.582s-0.229,1.793-0.689,2.582S8.512,9.136,7.724,9.596
		c-0.787,0.459-1.648,0.689-2.581,0.689c-0.933,0-1.794-0.23-2.582-0.689C1.773,9.136,1.149,8.513,0.69,7.725
		C0.23,6.937,0,6.076,0,5.143S0.23,3.35,0.69,2.562C1.149,1.773,1.773,1.15,2.562,0.69C3.349,0.23,4.21,0,5.143,0
		c0.933,0,1.794,0.23,2.581,0.69C8.512,1.15,9.136,1.773,9.596,2.562z M8.143,5.572V4.714c0-0.116-0.042-0.216-0.128-0.301
		C7.931,4.328,7.831,4.286,7.714,4.286H2.571c-0.116,0-0.216,0.042-0.301,0.127S2.143,4.599,2.143,4.714v0.857
		c0,0.116,0.042,0.216,0.127,0.301S2.455,6,2.571,6h5.143c0.116,0,0.217-0.042,0.301-0.127C8.101,5.788,8.143,5.688,8.143,5.572z"/>
</g>
</svg>
