<?xml version="1.0" encoding="utf-8"?>
<!-- Generator: Adobe Illustrator 22.1.0, SVG Export Plug-In . SVG Version: 6.00 Build 0)  -->
<svg version="1.1" id="Layer_1" xmlns="http://www.w3.org/2000/svg" xmlns:xlink="http://www.w3.org/1999/xlink" x="0px" y="0px"
	 width="216px" height="160px" viewBox="0 0 216 160" style="enable-background:new 0 0 216 160;" xml:space="preserve">
<style type="text/css">
	.st0{fill:#C8194B;}
</style>
<g>
	<path class="st0" d="M108,9.6C69.1,9.6,37.6,41.1,37.6,80s31.5,70.4,70.4,70.4s70.4-31.5,70.4-70.4S146.9,9.6,108,9.6z M108,136.8
		c-31.4,0-56.8-25.4-56.8-56.8S76.6,23.2,108,23.2s56.8,25.4,56.8,56.8S139.4,136.8,108,136.8z M125.5,107.1l-24.1-17.5
		c-0.9-0.7-1.4-1.7-1.4-2.8V40.3c0-1.9,1.5-3.4,3.4-3.4h9.1c1.9,0,3.4,1.5,3.4,3.4v40.2l19,13.8c1.5,1.1,1.8,3.2,0.7,4.8l-5.3,7.4
		C129.2,107.9,127.1,108.2,125.5,107.1L125.5,107.1z"/>
</g>
</svg>
