<?xml version="1.0" encoding="utf-8"?>
<!-- Generator: Adobe Illustrator 22.1.0, SVG Export Plug-In . SVG Version: 6.00 Build 0)  -->
<svg version="1.1" id="Layer_1" focusable="false" xmlns="http://www.w3.org/2000/svg" xmlns:xlink="http://www.w3.org/1999/xlink"
	 x="0px" y="0px" viewBox="0 0 384 512" style="enable-background:new 0 0 384 512;" xml:space="preserve">
<style type="text/css">
	.st0{fill:#E16446;}
</style>
<path class="st0" d="M224,136V0H24C10.7,0,0,10.7,0,24v464c0,13.3,10.7,24,24,24h336c13.3,0,24-10.7,24-24V160H248
	C234.8,160,224,149.2,224,136z M160,404c0,10.7-12.9,16-20.5,8.5L104,376H76c-6.6,0-12-5.4-12-12v-56c0-6.6,5.4-12,12-12h28
	l35.5-36.5c7.6-7.6,20.5-2.2,20.5,8.5V404z M193.2,356.4c9.1-9.3,9.1-24.1,0-33.4c-22.1-22.8,12.2-56.2,34.4-33.5
	c27.2,27.9,27.2,72.4,0,100.4C205.8,412.2,170.7,379.5,193.2,356.4L193.2,356.4z M279.2,239.3c54.4,55.9,54.4,144.8,0,200.8
	c-21.8,22.4-57-10.3-34.4-33.5c36.2-37.2,36.3-96.5,0-133.8C222.7,250,257.1,216.5,279.2,239.3z M384,121.9v6.1H256V0h6.1
	c6.4,0,12.5,2.5,17,7l97.9,98C381.5,109.5,384,115.6,384,121.9z"/>
</svg>
