<svg width="56" height="64" viewBox="0 0 56 64" fill="none" xmlns="http://www.w3.org/2000/svg">
<path d="M45.0249 10.4742C41.9749 7.42422 37.0249 7.42422 33.9749 10.4742L10.9749 33.4742C5.7124 38.7367 5.7124 47.2617 10.9749 52.5242C16.2374 57.7867 24.7624 57.7867 30.0249 52.5242L49.0249 33.5242C50.3874 32.1617 52.6124 32.1617 53.9749 33.5242C55.3374 34.8867 55.3374 37.1117 53.9749 38.4742L34.9749 57.4742C26.9749 65.4742 14.0249 65.4742 6.0249 57.4742C-1.9751 49.4742 -1.9751 36.5242 6.0249 28.5242L29.0249 5.52422C34.8124 -0.263281 44.1874 -0.263281 49.9749 5.52422C55.7624 11.3117 55.7624 20.6867 49.9749 26.4742L27.9749 48.4742C24.3999 52.0492 18.5999 52.0492 15.0249 48.4742C11.4499 44.8992 11.4499 39.0992 15.0249 35.5242L33.0249 17.5242C34.3874 16.1617 36.6124 16.1617 37.9749 17.5242C39.3374 18.8867 39.3374 21.1117 37.9749 22.4742L19.9749 40.4742C19.1374 41.3117 19.1374 42.6867 19.9749 43.5242C20.8124 44.3617 22.1874 44.3617 23.0249 43.5242L45.0249 21.5242C48.0749 18.4742 48.0749 13.5242 45.0249 10.4742Z" fill="#371376"/>
</svg>
