<svg width="56" height="64" viewBox="0 0 56 64" fill="none" xmlns="http://www.w3.org/2000/svg">
<path d="M23.35 25.2625L35.25 32.025L23.35 38.7875V25.2625ZM56 10V54C56 57.3125 53.3125 60 50 60H6C2.6875 60 0 57.3125 0 54V10C0 6.6875 2.6875 4 6 4H50C53.3125 4 56 6.6875 56 10ZM50.75 32.0375C50.75 32.0375 50.75 24.5875 49.8 21.0125C49.275 19.0375 47.7375 17.4875 45.775 16.9625C42.2375 16 28 16 28 16C28 16 13.7625 16 10.225 16.9625C8.2625 17.4875 6.725 19.0375 6.2 21.0125C5.25 24.575 5.25 32.0375 5.25 32.0375C5.25 32.0375 5.25 39.4875 6.2 43.0625C6.725 45.0375 8.2625 46.525 10.225 47.05C13.7625 48 28 48 28 48C28 48 42.2375 48 45.775 47.0375C47.7375 46.5125 49.275 45.025 49.8 43.05C50.75 39.4875 50.75 32.0375 50.75 32.0375Z" fill="#371376"/>
</svg>
