<svg xmlns="http://www.w3.org/2000/svg" xmlns:xlink="http://www.w3.org/1999/xlink" version="1.1" id="Layer_1" x="0" y="0" width="216" height="160" viewBox="0 0 216 160" enable-background="new 0 0 216 160" xml:space="preserve">
  <path fill="#4B9646" d="M177.15 40.23l-12.61-12.61c-1.71-1.7-3.75-2.61-6.25-2.61 -2.5 0-4.55 0.91-6.25 2.61L91.24 88.41 63.97 61.14c-1.7-1.7-3.86-2.61-6.25-2.61 -2.5 0-4.54 0.91-6.25 2.61L38.85 73.75c-1.7 1.71-2.61 3.75-2.61 6.25s0.91 4.55 2.61 6.25l33.52 33.52 12.61 12.61c1.7 1.7 3.86 2.61 6.25 2.61 2.5 0 4.55-0.91 6.25-2.61l12.61-12.61 67.05-67.04c1.7-1.7 2.61-3.86 2.61-6.25C179.76 43.98 178.85 41.93 177.15 40.23z"/>
</svg>
