<svg data-name="Layer 1" xmlns="http://www.w3.org/2000/svg" width="216" height="160"><path d="M167.61 65a1.49 1.49 0 0 1 2.39 1.11v50.33a11.81 11.81 0 0 1-11.81 11.81H55.81A11.81 11.81 0 0 1 44 116.44v-50.3A1.48 1.48 0 0 1 46.39 65c5.51 4.28 12.82 9.72 37.92 28 5.19 3.79 14 11.76 22.69 11.71s17.72-8.07 22.71-11.71c25.11-18.3 32.39-23.76 37.9-28zM107 96.75c5.71.1 13.93-7.19 18.06-10.19 32.66-23.7 35.15-25.76 42.68-31.67a5.91 5.91 0 0 0 2.26-4.65v-4.68a11.81 11.81 0 0 0-11.81-11.81H55.81A11.81 11.81 0 0 0 44 45.56v4.68a5.94 5.94 0 0 0 2.26 4.65c7.53 5.88 10 8 42.68 31.67 4.13 3 12.35 10.29 18.06 10.19z" fill="#371376"/></svg>