<svg id="Layer_1" data-name="Layer 1" xmlns="http://www.w3.org/2000/svg" width="216" height="160" viewBox="0 0 216 160">
  <title>c-icon__external-link--blue3-01</title>
  <path d="M183.75,22.81v31a5.82,5.82,0,0,1-9.92,4.11l-8.65-8.65-59,59a5.81,5.81,0,0,1-8.22,0l-5.48-5.48a5.81,5.81,0,0,1,0-8.22l59-59-8.65-8.65A5.82,5.82,0,0,1,146.94,17h31A5.81,5.81,0,0,1,183.75,22.81ZM142.83,82.58,139,86.46a5.81,5.81,0,0,0-1.7,4.11V125.5H59.75V48h63.94a5.81,5.81,0,0,0,4.11-1.7l3.87-3.88a5.81,5.81,0,0,0-4.11-9.92H55.88A11.62,11.62,0,0,0,44.25,44.13v85.25A11.62,11.62,0,0,0,55.88,141h85.25a11.62,11.62,0,0,0,11.62-11.62V86.69A5.81,5.81,0,0,0,142.83,82.58Z" style="fill: #C8194B"/>
</svg>
