<svg width="260" height="231" viewBox="0 0 260 231" fill="none" xmlns="http://www.w3.org/2000/svg">
<g clip-path="url(#clip0_530_3985)">
<path d="M238.333 0H21.6667C9.70486 0 0 9.7002 0 21.6562V166.031C0 177.987 9.70486 187.688 21.6667 187.688H108.333L101.111 209.344H68.6111C62.6076 209.344 57.7778 214.171 57.7778 220.172C57.7778 226.172 62.6076 231 68.6111 231H191.389C197.392 231 202.222 226.172 202.222 220.172C202.222 214.171 197.392 209.344 191.389 209.344H158.889L151.667 187.688H238.333C250.295 187.688 260 177.987 260 166.031V21.6562C260 9.7002 250.295 0 238.333 0ZM231.111 158.812H28.8889V28.875H231.111V158.812Z" fill="#371376"/>
</g>
<defs>
<clipPath id="clip0_530_3985">
<rect width="260" height="231" fill="white"/>
</clipPath>
</defs>
</svg>
