<?xml version="1.0" encoding="utf-8"?>
<!-- Generator: Adobe Illustrator 22.1.0, SVG Export Plug-In . SVG Version: 6.00 Build 0)  -->
<svg version="1.1" id="Layer_1" xmlns="http://www.w3.org/2000/svg" xmlns:xlink="http://www.w3.org/1999/xlink" x="0px" y="0px"
	 viewBox="0 0 384 512" style="enable-background:new 0 0 384 512;" xml:space="preserve">
<style type="text/css">
	.st0{fill:#FFFFFF;}
</style>
<g id="Layer_5">
	<path class="st0" d="M225,137V1H25C11.7,1,1,11.7,1,25v464c0,13.3,10.7,24,24,24h336c13.3,0,24-10.7,24-24V161H249
		C235.8,161,225,150.2,225,137z M301.5,348.4L205,444.1c-6.6,6.6-17.4,6.6-24,0l-96.4-95.7c-10.2-10.1-3-27.4,11.2-27.4H161v-80
		c0-8.8,7.2-16,16-16h32c8.8,0,16,7.2,16,16v80h65.2C304.5,321,311.6,338.3,301.5,348.4L301.5,348.4z M378,106L280.1,8
		c-4.5-4.5-10.6-7-17-7H257v128h128v-6.1C385,116.6,382.5,110.5,378,106z"/>
</g>
</svg>
