<svg xmlns="http://www.w3.org/2000/svg" fill="none" viewBox="0 0 40 40">
  <g clip-path="url(#a)">
    <path fill="#C8194B" fill-rule="evenodd" d="M20 40c11.0457 0 20-8.9543 20-20S31.0457 0 20 0 0 8.9543 0 20s8.9543 20 20 20Zm7.8139-26.6106c.8605.2315 1.5382.9136 1.7682 1.7797C30 16.7389 30 20.0142 30 20.0142s0 3.2753-.4179 4.8451c-.23.8661-.9077 1.5198-1.7682 1.7513-1.5598.4206-7.8139.4206-7.8139.4206s-6.2541 0-7.8139-.4206c-.8605-.2315-1.5382-.8852-1.7682-1.7513C10 23.2895 10 20.0142 10 20.0142s0-3.2753.4179-4.8451c.23-.8661.9077-1.5482 1.7682-1.7797C13.7459 12.9688 20 12.9688 20 12.9688s6.2542 0 7.8139.4206Zm-9.8594 3.6511v5.9474l5.2273-2.9736-5.2273-2.9738Z" clip-rule="evenodd"/>
  </g>
  <defs>
    <clipPath id="a">
      <path fill="#fff" d="M0 0h40v40H0z"/>
    </clipPath>
  </defs>
</svg>
