<svg id="Layer_1" data-name="Layer 1" xmlns="http://www.w3.org/2000/svg" xmlns:xlink="http://www.w3.org/1999/xlink" width="184.67" height="56" viewBox="0 0 184.67 56"><defs><clipPath id="clip-path"><rect x="2.04" y="8.6" width="167.33" height="38.24" style="fill:none"/></clipPath><clipPath id="clip-path-2"><rect x="2.04" y="8.6" width="167.34" height="38.24" style="fill:none"/></clipPath></defs><title>Exampro</title><g style="clip-path:url(#clip-path)"><path d="M169.37,28.3a9.12,9.12,0,0,0-2.7-7.27,12.57,12.57,0,0,0-9-2.76A12.25,12.25,0,0,0,149.44,22a12.1,12.1,0,0,0-2.75,9A8.8,8.8,0,0,0,151,38.14,14.1,14.1,0,0,0,164,38.2c5.69-2.93,5.4-9.9,5.4-9.9m-8.11.84s-.28,5.35-4.29,5c0,0-2.73-.06-2.4-4.52a8.73,8.73,0,0,1,1-3.93,3.33,3.33,0,0,1,3.11-1.92s3.51,0,2.62,5.41" style="fill:#402f80"/></g><g style="clip-path:url(#clip-path-2)"><path d="M130.45,39.08l2.82-20h7l-.35,3.22s2.4-4.45,6.68-3.81l-1.06,7.44s-3.34-.23-4,.36c0,0-1.82.64-2.4,4.33L138,39.08Z" style="fill:#402f80"/><path d="M122.09,18.35a7.75,7.75,0,0,0-6.64,3.38l.18-2.69h-6.8L105,46.83h7.45L114,36.38s1.72,3.7,6.76,3.38c0,0,7.84-.06,8.79-10.7,0,0,1.47-10.2-7.45-10.71m-.37,10.45s-.12,5-4.11,4.67c0,0-3.75-.07-2.28-6.21,0,0,.93-3.44,3.74-3.19,0,0,3.27-.25,2.65,4.73" style="fill:#402f80"/><path d="M70.27,39l3-20H80l-.4,3.06s2.77-3.74,6.56-3.74c0,0,4.47,0,5.4,4,0,0,2.88-4.22,7.3-4,0,0,7.1-.38,5.85,8.46L103.07,39H95.54l1.61-11.58s.81-3-2.11-3c0,0-2.05-.26-2.74,2.3l-1.91,12.3H83l1.59-11.83a2.19,2.19,0,0,0-2.17-2.93,3,3,0,0,0-2.88,2.61L77.67,39Z" style="fill:#402f80"/><path d="M67.06,34.89s1.61-9.17,1.53-10.79c0,0-.17-4.58-6.12-5.52,0,0-5.78-.77-9.95.85,0,0-3.09,1-4.11,5.47h7.27s-.14-2.09,2.75-2c0,0,3-.06,2.75,1.94,0,0,.3,1.35-2.22,1.64-1.29.15-2.58.29-3.64.35,0,0-8.85.17-9.08,6.54,0,0-.82,6.12,6.5,6.3A12.15,12.15,0,0,0,59.9,37l.23,2h7.44v-.55s-1.11-1-.51-3.58m-11.87-.24a1.5,1.5,0,0,1-1-1.61s-.17-1.49,2.19-1.86a30.81,30.81,0,0,0,3.87-.93s0,5.47-5,4.4" style="fill:#402f80"/></g><g style="clip-path:url(#clip-path)"><polygon points="39.42 29 35.12 33.6 31.74 29 31.61 29 22.35 38.93 30.38 38.93 35.14 33.59 38.66 39.09 46.86 39.09 39.48 29 39.42 29" style="fill:#402f80"/><polygon points="39.42 29 58.41 8.68 50.46 8.59 36.13 23.8 32.5 18.79 24.23 18.79 31.74 29 35.12 33.6 39.42 29" style="fill:#c82254"/><path d="M24.5,30.7s1.82-12.25-10-12.37c0,0-11.67-1.17-12.49,11.32,0,0-.83,9.94,11,10.13,0,0,4.81.3,8.15-2.58,0,0,2.39-1.91,2.58-3.92l-7.33,0s-.94,2.29-4.1,1.53c0,0-2.54-.36-2.29-4.16ZM13.92,23.11c3.23.07,3.14,3.54,3.14,3.54H10.38a3.4,3.4,0,0,1,3.54-3.54" style="fill:#402f80"/></g></svg>