<?xml version="1.0" encoding="utf-8"?>
<!-- Generator: Adobe Illustrator 22.1.0, SVG Export Plug-In . SVG Version: 6.00 Build 0)  -->
<svg version="1.1" id="Layer_1" xmlns="http://www.w3.org/2000/svg" xmlns:xlink="http://www.w3.org/1999/xlink" x="0px" y="0px"
	 viewBox="0 0 384 512" style="enable-background:new 0 0 384 512;" xml:space="preserve">
<style type="text/css">
	.st0{fill:#1847BF;}
</style>
<g id="Layer_4">
	<path class="st0" d="M259.8,176.4C248.6,107.4,222.2,59,191.5,59s-57.1,48.4-68.3,117.4H259.8z"/>
	<path class="st0" d="M117.4,250.5c0,17.1,0.9,33.6,2.5,49.4H263c1.6-15.8,2.5-32.3,2.5-49.4s-0.9-33.6-2.5-49.4H119.9
		C118.3,216.9,117.4,233.4,117.4,250.5z"/>
	<path class="st0" d="M368.1,176.4c-22.1-52.4-66.8-93-122-109.3c18.8,26.1,31.8,65.4,38.6,109.3H368.1z"/>
	<path class="st0" d="M136.8,67C81.7,83.4,36.9,123.9,14.9,176.4h83.4C105,132.4,118,93.1,136.8,67L136.8,67z"/>
	<path class="st0" d="M376.4,201.1h-88.6c1.6,16.2,2.5,32.8,2.5,49.4s-0.9,33.2-2.5,49.4h88.5c4.2-15.8,6.6-32.3,6.6-49.4
		S380.5,216.9,376.4,201.1L376.4,201.1z"/>
	<path class="st0" d="M92.7,250.5c0-16.6,0.9-33.2,2.5-49.4H6.6C2.5,216.9,0,233.4,0,250.5s2.5,33.6,6.6,49.4h88.5
		C93.6,283.7,92.7,267.1,92.7,250.5z"/>
	<path class="st0" d="M123.2,324.6c11.2,69,37.6,117.4,68.3,117.4s57.1-48.4,68.3-117.4H123.2z"/>
	<path class="st0" d="M246.2,434c55.1-16.4,99.9-56.9,122-109.3h-83.4C278,368.6,265,407.9,246.2,434z"/>
	<path class="st0" d="M14.9,324.6c22.1,52.4,66.8,93,122,109.3c-18.8-26.1-31.8-65.4-38.6-109.3C98.3,324.6,14.9,324.6,14.9,324.6z"
		/>
</g>
</svg>
