<svg version="1" xmlns="http://www.w3.org/2000/svg" width="216" height="160"><path fill="#FFF" d="M99 80V55a9 9 0 0 1 18-1v51c0 5-3 9-8 10a8 8 0 0 1-10-9V80zM148 98v16c0 5-3 8-7 9-5 0-9-3-10-7v-2-32c0-4 3-8 7-9a9 9 0 0 1 10 10v15zM85 62v16c0 4-3 7-8 8-4 1-8-2-9-7V46c0-4 3-8 7-8 5-1 9 2 10 6v18zM161 80v-5a9 9 0 0 1 18 0v10a9 9 0 0 1-18 0v-5zM54 80v5a9 9 0 1 1-17 0V75a8 8 0 0 1 9-9c5 0 8 4 8 9v5zM117 22v6a9 9 0 0 1-18 0V17a9 9 0 0 1 18 0v5zM99 137v-5a9 9 0 0 1 18 0v10c-1 5-4 9-9 9s-9-4-9-9v-5zM131 51v-5a9 9 0 0 1 17 0v10a9 9 0 0 1-17 0v-5zM68 109v-5a9 9 0 0 1 17 0v10a9 9 0 0 1-17 0v-5z"/></svg>