<?xml version="1.0" encoding="utf-8"?>
<!-- Generator: Adobe Illustrator 16.0.0, SVG Export Plug-In . SVG Version: 6.00 Build 0)  -->
<!DOCTYPE svg PUBLIC "-//W3C//DTD SVG 1.1//EN" "http://www.w3.org/Graphics/SVG/1.1/DTD/svg11.dtd">
<svg version="1.1" id="Layer_1" xmlns="http://www.w3.org/2000/svg" xmlns:xlink="http://www.w3.org/1999/xlink" x="0px" y="0px"
	 width="108px" height="38.5px" viewBox="0 0 108 38.5" enable-background="new 0 0 108 38.5" xml:space="preserve">
<path fill="#FFFFFF" d="M54.415,22.943c0-7.579-6.159-13.723-13.757-13.723S26.9,15.364,26.9,22.943
	c0,7.577,6.159,13.721,13.757,13.721c2.003,0,3.904-0.431,5.621-1.198l1.609,2.074c0,0,2.128,2.699,5.333-0.944l-2.998-3.797
	C52.806,30.304,54.415,26.812,54.415,22.943z M40.658,31.727c-4.637,0-8.396-3.939-8.396-8.799c0-4.859,3.759-8.798,8.396-8.798
	c4.636,0,8.395,3.939,8.395,8.798c0,2.209-0.779,4.228-2.063,5.773l-3.338-4.229c-0.305,0-0.661,0.035-1.066,0.105
	c-0.406,0.072-0.787,0.198-1.143,0.382c-0.355,0.183-0.654,0.432-0.898,0.745c-0.244,0.315-0.366,0.716-0.366,1.203
	c0,0.346,0.127,0.71,0.381,1.096c0.254,0.387,0.522,0.762,0.807,1.128l1.721,2.218C42.319,31.595,41.503,31.727,40.658,31.727z"/>
<path fill="#FFFFFF" d="M15.89,9.506c-1.042-0.61-1.97-0.651-2.611-0.555c0,0-1.452,0.21-2.42,0.708
	c-2.381,4.907-10.86,26.292-10.86,26.292H5.32c2.868-8.365,8.334-20.81,8.334-20.81c0.228,0.208,2.005,4.71,3.842,9.476h-6.653
	c-0.874,4.773,2.563,4.771,2.563,4.771l5.9-0.052c1.401,3.672,2.509,6.614,2.509,6.614h5.73c-7.813-20.83-10.44-25.166-10.44-25.166
	S16.672,9.969,15.89,9.506z"/>
<path fill="#FFFFFF" d="M81.84,35.951c-7.813-20.83-10.441-25.166-10.441-25.166s-0.434-0.816-1.216-1.279
	c-1.042-0.61-1.97-0.651-2.611-0.555c0,0-1.451,0.21-2.419,0.708c-2.382,4.907-10.86,26.292-10.86,26.292h5.321
	c2.868-8.365,8.335-20.81,8.335-20.81c0.228,0.208,2.004,4.71,3.842,9.476h-6.653c-0.874,4.773,2.563,4.771,2.563,4.771l5.899-0.052
	c1.401,3.672,2.51,6.614,2.51,6.614H81.84z"/>
<path fill="#FFFFFF" d="M89.092,0.699c-2.083,0-3.772,1.772-3.772,3.964l-0.003,15.825c0.747-1.58,2.031-4.227,3.346-6.615
	c4.83-9.885,11.21-8.828,15.46-9.902c1.831-0.462,3.23-2.5,3.704-3.271H89.092z"/>
<path fill="#FFFFFF" d="M106.106,10.903c-0.819,2.07-2.454,5.104-6.351,7.078c-2.078,1.052-5.142,1.042-7.694,0.767
	c-2.893-0.19-4.811,0.027-5.974,3.126c-0.358,1.001-0.772,2.637-0.772,2.637h18.902c2.084,0,3.773-1.776,3.773-3.967L108,0.699
	h-0.005C107.956,2.222,107.706,6.859,106.106,10.903z"/>
</svg>
