<svg width="92" height="73" viewBox="0 0 92 73" fill="none" xmlns="http://www.w3.org/2000/svg">
<path d="M48.1629 0.769922C46.623 -0.256641 44.627 -0.256641 43.0871 0.769922L23.7107 13.6875H6.84375C3.06543 13.6875 0 16.7529 0 20.5312V66.1562C0 69.9346 3.06543 73 6.84375 73H84.4062C88.1846 73 91.25 69.9346 91.25 66.1562V20.5312C91.25 16.7529 88.1846 13.6875 84.4062 13.6875H67.5393L48.1629 0.769922ZM36.5 59.3125C36.5 54.2795 40.592 50.1875 45.625 50.1875C50.658 50.1875 54.75 54.2795 54.75 59.3125V73H36.5V59.3125ZM13.6875 27.375H18.25C19.5047 27.375 20.5312 28.4016 20.5312 29.6562V38.7812C20.5312 40.0359 19.5047 41.0625 18.25 41.0625H13.6875C12.4328 41.0625 11.4062 40.0359 11.4062 38.7812V29.6562C11.4062 28.4016 12.4328 27.375 13.6875 27.375ZM70.7188 29.6562C70.7188 28.4016 71.7453 27.375 73 27.375H77.5625C78.8172 27.375 79.8438 28.4016 79.8438 29.6562V38.7812C79.8438 40.0359 78.8172 41.0625 77.5625 41.0625H73C71.7453 41.0625 70.7188 40.0359 70.7188 38.7812V29.6562ZM13.6875 45.625H18.25C19.5047 45.625 20.5312 46.6516 20.5312 47.9062V57.0312C20.5312 58.2859 19.5047 59.3125 18.25 59.3125H13.6875C12.4328 59.3125 11.4062 58.2859 11.4062 57.0312V47.9062C11.4062 46.6516 12.4328 45.625 13.6875 45.625ZM70.7188 47.9062C70.7188 46.6516 71.7453 45.625 73 45.625H77.5625C78.8172 45.625 79.8438 46.6516 79.8438 47.9062V57.0312C79.8438 58.2859 78.8172 59.3125 77.5625 59.3125H73C71.7453 59.3125 70.7188 58.2859 70.7188 57.0312V47.9062ZM33.0781 25.0938C33.0781 21.7661 34.4 18.5748 36.753 16.2218C39.106 13.8688 42.2974 12.5469 45.625 12.5469C48.9526 12.5469 52.144 13.8688 54.497 16.2218C56.85 18.5748 58.1719 21.7661 58.1719 25.0938C58.1719 28.4214 56.85 31.6127 54.497 33.9657C52.144 36.3187 48.9526 37.6406 45.625 37.6406C42.2974 37.6406 39.106 36.3187 36.753 33.9657C34.4 31.6127 33.0781 28.4214 33.0781 25.0938ZM45.625 18.25C44.3703 18.25 43.3438 19.2766 43.3438 20.5312V25.0938C43.3438 26.3484 44.3703 27.375 45.625 27.375H50.1875C51.4422 27.375 52.4688 26.3484 52.4688 25.0938C52.4688 23.8391 51.4422 22.8125 50.1875 22.8125H47.9062V20.5312C47.9062 19.2766 46.8797 18.25 45.625 18.25Z" fill="#371376"/>
</svg>
