<?xml version="1.0" encoding="UTF-8"?>
<!DOCTYPE svg  PUBLIC '-//W3C//DTD SVG 1.1//EN'  'http://www.w3.org/Graphics/SVG/1.1/DTD/svg11.dtd'>
<svg enable-background="new 0 0 216 160" version="1.1" viewBox="0 0 216 160" xml:space="preserve" xmlns="http://www.w3.org/2000/svg">
<path d="m177.15 40.23l-12.61-12.61c-1.71-1.7-3.75-2.61-6.25-2.61s-4.55 0.91-6.25 2.61l-60.8 60.79-27.27-27.27c-1.7-1.7-3.86-2.61-6.25-2.61-2.5 0-4.54 0.91-6.25 2.61l-12.62 12.61c-1.7 1.71-2.61 3.75-2.61 6.25s0.91 4.55 2.61 6.25l33.52 33.52 12.61 12.61c1.7 1.7 3.86 2.61 6.25 2.61 2.5 0 4.55-0.91 6.25-2.61l12.61-12.61 67.051-67.04c1.699-1.7 2.609-3.86 2.609-6.25 0.01-2.5-0.9-4.55-2.6-6.25z" fill="#C8194B"/>
</svg>
