<?xml version="1.0" encoding="utf-8"?>
<!-- Generator: Adobe Illustrator 22.1.0, SVG Export Plug-In . SVG Version: 6.00 Build 0)  -->
<svg version="1.1" id="Layer_1" xmlns="http://www.w3.org/2000/svg" xmlns:xlink="http://www.w3.org/1999/xlink" x="0px" y="0px"
	 width="10.3px" height="10.3px" viewBox="0 0 10.3 10.3" style="enable-background:new 0 0 10.3 10.3;" xml:space="preserve">
<style type="text/css">
	.st0{fill:#371376;}
</style>
<g>
	<path class="st0" d="M9.6,2.6c0.5,0.8,0.7,1.6,0.7,2.6s-0.2,1.8-0.7,2.6C9.1,8.5,8.5,9.1,7.7,9.6c-0.8,0.5-1.6,0.7-2.6,0.7
		s-1.8-0.2-2.6-0.7C1.8,9.1,1.1,8.5,0.7,7.7C0.2,6.9,0,6.1,0,5.1s0.2-1.8,0.7-2.6c0.5-0.8,1.1-1.4,1.9-1.9C3.3,0.2,4.2,0,5.1,0
		s1.8,0.2,2.6,0.7S9.1,1.8,9.6,2.6z M8.1,5.6V4.7c0-0.1,0-0.2-0.1-0.3S7.8,4.3,7.7,4.3H6V2.6c0-0.1,0-0.2-0.1-0.3
		C5.8,2.2,5.7,2.1,5.6,2.1H4.7c-0.1,0-0.2,0-0.3,0.1C4.3,2.4,4.3,2.5,4.3,2.6v1.7H2.6c-0.1,0-0.2,0-0.3,0.1S2.1,4.6,2.1,4.7v0.9
		c0,0.1,0,0.2,0.1,0.3S2.5,6,2.6,6h1.7v1.7c0,0.1,0,0.2,0.1,0.3c0.1,0.1,0.2,0.1,0.3,0.1h0.9c0.1,0,0.2,0,0.3-0.1C6,7.9,6,7.8,6,7.7
		V6h1.7C7.8,6,7.9,6,8,5.9C8.1,5.8,8.1,5.7,8.1,5.6z"/>
</g>
</svg>
