<svg xmlns="http://www.w3.org/2000/svg" fill="none" viewBox="0 0 24 24">
  <path fill="#fff" d="M21.5821 7.16905c-.23-.86609-.9077-1.54819-1.7682-1.77967C18.2542 4.96875 12 4.96875 12 4.96875s-6.25414 0-7.81387.42063c-.86048.23152-1.53819.91358-1.76821 1.77967C2 8.73889 2 12.0142 2 12.0142s0 3.2753.41792 4.8451c.23002.8661.90773 1.5198 1.76821 1.7513C5.74586 19.0312 12 19.0312 12 19.0312s6.2541 0 7.8139-.4206c.8605-.2315 1.5382-.8852 1.7682-1.7513C22 15.2895 22 12.0142 22 12.0142s0-3.27531-.4179-4.84515ZM9.95453 14.9879V9.04046l5.22727 2.97384-5.22727 2.9736Z"/>
</svg>
