<svg xmlns="http://www.w3.org/2000/svg" fill="none" viewBox="0 0 24 24">
  <path fill="#C8194B" d="M2.71429 6.46429H21.2857c.3945 0 .7143-.31978.7143-.71429V3.96429c0-.39451-.3198-.71429-.7143-.71429H2.71429C2.31978 3.25 2 3.56978 2 3.96429V5.75c0 .39451.31978.71429.71429.71429Zm0 7.14281H21.2857c.3945 0 .7143-.3197.7143-.7142v-1.7858c0-.3945-.3198-.7142-.7143-.7142H2.71429c-.39451 0-.71429.3197-.71429.7142v1.7858c0 .3945.31978.7142.71429.7142Zm0 7.1429H21.2857c.3945 0 .7143-.3198.7143-.7143V18.25c0-.3945-.3198-.7143-.7143-.7143H2.71429c-.39451 0-.71429.3198-.71429.7143v1.7857c0 .3945.31978.7143.71429.7143Z"/>
</svg>
