<svg version="1.1" id="Layer_1" xmlns="http://www.w3.org/2000/svg" x="0" y="0" viewBox="0 0 216 160" xml:space="preserve"><style>.st0{fill:#0f71ac}.st1{display:none}.st2{display:inline}.st3{fill:#1847BF}</style><g id="Layer_2_1_"><path class="st0" d="M174 97.6l-6.4-6.4c-2.5-2.5-6.9-2.5-9.5 0l-34.4 34.4-4.8 17.4-1.2 1.2c-.9.9-.9 2.3 0 3.2.5.5 1 .6 1.5.6s1.2-.2 1.6-.6l1.2-1.2 17.4-4.8 34.4-34.4c2.8-2.6 2.8-6.8.2-9.4zm-41.5 29.1l19.3-19.3 5.9 5.9-19.2 19.4-6-6zm-4.7 6.2l4.5 4.5-6.3 1.8 1.8-6.3zm40.4-29.9l-5.5 5.5-5.9-5.9 5.5-5.5c.8-.8 2.3-.8 3.2 0l2.8 2.8c.8.7.8 2.2-.1 3.1zM66.4 95h58.1c1.3 0 3.2-1.9 3.2-3.2 0-1.3-1.9-3.2-3.2-3.2H66.4c-1.3 0-3.2 1.9-3.2 3.2s2 3.2 3.2 3.2zM66.4 59.7h29.1c1.3 0 3.2-1.9 3.2-3.2s-1.9-3.2-3.2-3.2H66.4c-1.3 0-3.2 1.9-3.2 3.2.1 1.3 2 3.2 3.2 3.2z"/><path class="st0" d="M106.7 141.1H57V36.5h12.1v9c0 1.3 1 2.3 2.3 2.3h55c1.3 0 2.3-1 2.3-2.3v-9h12.1v48.3c0 1.3 1.9 3.2 3.2 3.2s3.2-1.9 3.2-3.2V32.4c0-1.3-1-2.3-2.3-2.3h-16.1v-9c0-1.3-1-2.3-2.3-2.3h-13.4v-4.5c0-1.3-1-2.3-2.3-2.3H87c-1.3 0-2.3 1-2.3 2.3v4.5H71.3c-1.3 0-2.3 1-2.3 2.3v9H53c-1.3 0-2.3.8-2.3 2.3v110.9c0 3.1 1.9 4.1 3.2 4.1h52.8c1.3 0 3.2-1.9 3.2-3.2-.1-1.3-2-3.1-3.2-3.1zM91 18.6h15.7v9H91v-9zm-15.6 6.7h9.4v6.3c0 1.3 1 2.3 2.3 2.3h23.8c1.3 0 2.3-1 2.3-2.3v-6.3h9.4v16.2h-47v-9c-.2-.1-.2-7.2-.2-7.2z"/><path class="st0" d="M66.4 130.3h38.1c1.3 0 3.2-1.9 3.2-3.2s-1.9-3.2-3.2-3.2H66.4c-1.3 0-3.2 1.9-3.2 3.2 0 1.3 2 3.2 3.2 3.2zM66.4 77.3h58.1c1.3 0 3.2-1.9 3.2-3.2 0-1.3-1.9-3.2-3.2-3.2H66.4c-1.3 0-3.2 1.9-3.2 3.2s2 3.2 3.2 3.2zM66.4 112.6h38.1c1.3 0 3.2-1.9 3.2-3.2 0-1.3-1.9-3.2-3.2-3.2H66.4c-1.3 0-3.2 1.9-3.2 3.2.1 1.3 2 3.2 3.2 3.2z"/></g><g id="Layer_3" class="st1"><g class="st2"><path class="st3" d="M164.4 9.9h-19.7c-2.3 0-4.1 1.8-4.1 4.1s1.8 4.1 4.1 4.1h19.7c3.8 0 7 3.1 7 7v19.7c0 2.3 1.8 4.1 4.1 4.1s4.1-1.8 4.1-4.1V25.1c0-8.4-6.8-15.2-15.2-15.2zM42.8 49c2.3 0 4.1-1.8 4.1-4.1V25.1c0-3.8 3.1-7 7-7h19.7c2.3 0 4.1-1.8 4.1-4.1s-1.8-4.1-4.1-4.1H53.9c-8.4 0-15.2 6.8-15.2 15.2v19.7c0 2.3 1.8 4.2 4.1 4.2zM73.6 142.6H53.9c-3.8 0-7-3.1-7-7v-19.7c0-2.3-1.8-4.1-4.1-4.1s-4.1 1.8-4.1 4.1v19.7c0 8.4 6.8 15.2 15.2 15.2h19.7c2.3 0 4.1-1.8 4.1-4.1s-1.8-4.1-4.1-4.1zM175.5 111.7c-2.3 0-4.1 1.8-4.1 4.1v19.7c0 3.8-3.1 7-7 7h-19.7c-2.3 0-4.1 1.8-4.1 4.1s1.8 4.1 4.1 4.1h19.7c8.4 0 15.2-6.8 15.2-15.2v-19.7c0-2.2-1.9-4.1-4.1-4.1zM132.7 40.2h13.1c1.8 0 3.2 1.5 3.2 3.2v13.1c0 2.3 1.8 4.1 4.1 4.1s4.1-1.8 4.1-4.1V43.4c0-6.3-5.2-11.5-11.5-11.5h-13.1c-2.3 0-4.1 1.8-4.1 4.1s1.9 4.2 4.2 4.2zM61 43.4v13.1c0 2.3 1.8 4.1 4.1 4.1s4.1-1.8 4.1-4.1V43.4c0-1.8 1.5-3.2 3.2-3.2h13.1c2.3 0 4.1-1.8 4.1-4.1S87.8 32 85.5 32h-13C66.1 31.9 61 37.1 61 43.4zM85.6 120H72.5c-1.8 0-3.2-1.5-3.2-3.2v-13.1c0-2.3-1.8-4.1-4.1-4.1s-4.1 1.8-4.1 4.1v13.1c0 6.3 5.2 11.5 11.5 11.5h13.1c2.3 0 4.1-1.8 4.1-4.1-.1-2.4-2-4.2-4.2-4.2zM157.3 116.8v-13.1c0-2.3-1.8-4.1-4.1-4.1s-4.1 1.8-4.1 4.1v13.1c0 1.8-1.5 3.2-3.2 3.2h-13.1c-2.3 0-4.1 1.8-4.1 4.1s1.8 4.1 4.1 4.1h13.1c6.2.1 11.4-5.1 11.4-11.4zM39 80.4c0 2.3 1.8 4.1 4.1 4.1h132.1c2.3 0 4.1-1.8 4.1-4.1s-1.8-4.1-4.1-4.1H43.1c-2.3-.1-4.1 1.8-4.1 4.1z"/></g></g><g id="Layer_4" class="st1"><g class="st2"><path class="st3" d="M182.2 54.4c-4.8-4.8-12.5-4.8-17.3 0l-12.2 12.2V34.4c0-3.3-1.3-6.3-3.6-8.6l-11.5-11.5c-2.3-2.3-5.4-3.6-8.6-3.6H59.2c-6.7 0-12.2 5.5-12.2 12.2v114.4c0 6.7 5.5 12.2 12.2 12.2h81.3c6.7 0 12.2-5.5 12.2-12.2v-36.2l29.5-29.5c4.8-4.7 4.8-12.4 0-17.2zm-53.9-35.6c.8 0 2.2-.1 3.6 1.2l11.5 11.5c1.3 1.3 1.2 2.7 1.2 3.6h-16.3V18.8zm16.3 118.5c0 2.2-1.8 4.1-4.1 4.1H59.2c-2.2 0-4.1-1.8-4.1-4.1V22.9c0-2.2 1.8-4.1 4.1-4.1h61v20.3c0 2.2 1.8 4.1 4.1 4.1h20.3v31.5l-12 12-5.7 5.7c-.4.4-.8 1-1 1.6l-5.8 17.3c-.5 1.5-.1 3.1 1 4.2s2.7 1.5 4.2 1l17.3-5.8c.6-.2 1.1-.5 1.6-1l.5-.5-.1 28.1zm-9.1-41.9l5.8 5.8-2.2 2.2-8.6 2.9 2.9-8.6 2.1-2.3zm11.5 0l-5.8-5.8c3.1-3.1 16.7-16.7 19.5-19.6l5.8 5.8L147 95.4zm29.5-29.5l-4.2 4.2-5.8-5.8 4.2-4.2c1.6-1.6 4.2-1.6 5.8 0 1.5 1.6 1.5 4.2 0 5.8z"/></g><g class="st2"><path class="st3" d="M124.3 51.4h-57c-2.2 0-4.1 1.8-4.1 4.1s1.8 4.1 4.1 4.1h56.9c2.2 0 4.1-1.8 4.1-4.1s-1.8-4.1-4-4.1z"/></g><g class="st2"><path class="st3" d="M108 67.6H67.3c-2.2 0-4.1 1.8-4.1 4.1s1.8 4.1 4.1 4.1H108c2.2 0 4.1-1.8 4.1-4.1s-1.9-4.1-4.1-4.1z"/></g><g class="st2"><path class="st3" d="M108 83.9H67.3c-2.2 0-4.1 1.8-4.1 4.1s1.8 4.1 4.1 4.1H108c2.2 0 4.1-1.8 4.1-4.1s-1.9-4.1-4.1-4.1z"/></g><g class="st2"><path class="st3" d="M108 100.2H67.3c-2.2 0-4.1 1.8-4.1 4.1s1.8 4.1 4.1 4.1H108c2.2 0 4.1-1.8 4.1-4.1s-1.9-4.1-4.1-4.1z"/></g><g class="st2"><path class="st3" d="M124.3 125.1H99.9c-2.2 0-4.1 1.8-4.1 4.1 0 2.2 1.8 4.1 4.1 4.1h24.4c2.2 0 4.1-1.8 4.1-4.1-.1-2.3-1.9-4.1-4.1-4.1z"/></g></g></svg>