<svg width="46" height="40" viewBox="0 0 46 40" fill="none" xmlns="http://www.w3.org/2000/svg">
<path d="M41.4359 8.57143H7.1875C6.39328 8.57143 5.75 7.93214 5.75 7.14286C5.75 6.35357 6.39328 5.71429 7.1875 5.71429H41.6875C42.4817 5.71429 43.125 5.075 43.125 4.28571C43.125 1.91875 41.1943 0 38.8125 0H5.75C2.57402 0 0 2.55804 0 5.71429V34.2857C0 37.442 2.57402 40 5.75 40H41.4359C43.9534 40 46 38.0777 46 35.7143V12.8571C46 10.4938 43.9534 8.57143 41.4359 8.57143ZM37.375 27.1429C35.7875 27.1429 34.5 25.8634 34.5 24.2857C34.5 22.708 35.7875 21.4286 37.375 21.4286C38.9625 21.4286 40.25 22.708 40.25 24.2857C40.25 25.8634 38.9625 27.1429 37.375 27.1429Z" fill="#1847BF"/>
</svg>
