<?xml version="1.0" encoding="utf-8"?>
<!-- Generator: Adobe Illustrator 16.0.0, SVG Export Plug-In . SVG Version: 6.00 Build 0)  -->
<!DOCTYPE svg PUBLIC "-//W3C//DTD SVG 1.1//EN" "http://www.w3.org/Graphics/SVG/1.1/DTD/svg11.dtd">
<svg version="1.1" id="Layer_1" xmlns="http://www.w3.org/2000/svg" xmlns:xlink="http://www.w3.org/1999/xlink" x="0px" y="0px"
	 width="10.286px" height="10.286px" viewBox="0 0 10.286 10.286" enable-background="new 0 0 10.286 10.286" xml:space="preserve">
<g>
	<path fill="#D4D3D7" d="M9.596,2.562c0.459,0.788,0.689,1.648,0.689,2.582s-0.23,1.793-0.689,2.582
		c-0.46,0.788-1.084,1.412-1.872,1.872c-0.788,0.459-1.648,0.689-2.581,0.689c-0.933,0-1.794-0.23-2.582-0.689
		C1.773,9.136,1.149,8.513,0.69,7.725C0.23,6.937,0,6.076,0,5.143S0.23,3.35,0.69,2.562C1.149,1.773,1.773,1.15,2.562,0.69
		C3.349,0.23,4.21,0,5.143,0c0.933,0,1.793,0.23,2.581,0.69C8.512,1.15,9.136,1.773,9.596,2.562z M8.143,5.572V4.714
		c0-0.116-0.042-0.216-0.127-0.301S7.831,4.286,7.714,4.286H6V2.572C6,2.456,5.958,2.355,5.873,2.27
		C5.788,2.186,5.688,2.143,5.571,2.143H4.714c-0.116,0-0.217,0.042-0.301,0.127C4.328,2.355,4.286,2.456,4.286,2.572v1.714H2.571
		c-0.116,0-0.216,0.042-0.301,0.127S2.143,4.599,2.143,4.714v0.857c0,0.116,0.042,0.216,0.127,0.301S2.455,6,2.571,6h1.714v1.714
		c0,0.116,0.042,0.217,0.127,0.301c0.084,0.085,0.185,0.127,0.301,0.127h0.857c0.116,0,0.217-0.042,0.301-0.127
		C5.958,7.931,6,7.831,6,7.714V6h1.714c0.116,0,0.216-0.042,0.301-0.127S8.143,5.688,8.143,5.572z"/>
</g>
</svg>
