<svg xmlns="http://www.w3.org/2000/svg" width="216" height="160"><path fill="#FFF" d="M108 9.6a70.87 70.87 0 1 0 0 141.74A70.87 70.87 0 0 0 108 9.6zm32.6 102.58a4.43 4.43 0 0 1-6.11 1.42 81.85 81.85 0 0 0-61.92-6.55 4.54 4.54 0 1 1-1.95-8.86c23.14-6.7 48-3.83 69 7.97a4.43 4.43 0 0 1 1.24 6.02h-.26zm8.86-19.4c-1.6 2.6-5 3.43-7.62 1.86a93.46 93.46 0 0 0-70.87-8.32 5.58 5.58 0 0 1-3.19-10.63 103.9 103.9 0 0 1 79.73 9.48 5.49 5.49 0 0 1 2.03 7.61h-.08zm.7-20.2C127.31 59.04 89.5 57.8 67.61 64.45a6.67 6.67 0 1 1-3.9-12.76c25.16-7.62 66.88-6.11 93.28 9.48a6.64 6.64 0 0 1-6.58 11.51l-.16-.08h-.09z"/></svg>