<svg width="73" height="73" viewBox="0 0 73 73" fill="none" xmlns="http://www.w3.org/2000/svg">
<path d="M64.6833 2.68957L70.305 8.31126C73.872 11.8783 73.872 17.657 70.305 21.224L62.8712 28.6578L62.7285 28.5151L60.4456 26.2322L46.7481 12.5347L44.3225 10.1091L51.7562 2.6753C55.3233 -0.891766 61.102 -0.891766 64.669 2.6753L64.6833 2.68957ZM34.3918 16.33C33.0506 14.9888 30.8818 14.9888 29.5548 16.33L14.987 30.8979C13.6457 32.2391 11.477 32.2391 10.15 30.8979C8.82307 29.5567 8.8088 27.3879 10.15 26.061L24.7036 11.4931C28.713 7.4837 35.2193 7.4837 39.2287 11.4931L41.0979 13.3622L43.5235 15.7878L57.221 29.4854L59.5039 31.7683L59.6466 31.911L57.221 34.3366L32.7509 58.7924C25.9022 65.6411 17.17 70.3211 7.66734 72.2188L4.10028 72.9322C2.97308 73.1605 1.81736 72.8038 1.00407 71.9905C0.190775 71.1772 -0.151663 70.0215 0.0623604 68.8943L0.775773 65.3272C2.67345 55.8246 7.35344 47.0924 14.2022 40.2436L36.2609 18.1992L34.3918 16.33Z" fill="#371376"/>
</svg>
