<svg xmlns="http://www.w3.org/2000/svg" xmlns:xlink="http://www.w3.org/1999/xlink" version="1.1" id="Layer_1" x="0" y="0" width="216" height="160" viewBox="0 0 216 160" enable-background="new 0 0 216 160" xml:space="preserve">
  <path fill="#FFFFFF" d="M171.4 103.45c0-2.8-1-5.3-3-7.3l-53-53c-2-2.1-4.5-3.1-7.4-3.1s-5.3 1-7.3 3.1l-53 53c-2.1 1.9-3.1 4.4-3.1 7.3 0 2.9 1 5.3 3.1 7.4l6 6.1c2.1 2 4.6 3 7.4 3 2.8 0 5.3-1 7.3-3l39.6-39.6 39.7 39.6c2 2 4.4 3 7.3 3 2.8 0 5.3-1 7.4-3l6.1-6.1C170.5 108.75 171.5 106.25 171.4 103.45z"/>
</svg>
