<?xml version="1.0" encoding="utf-8"?>
<!-- Generator: Adobe Illustrator 22.1.0, SVG Export Plug-In . SVG Version: 6.00 Build 0)  -->
<svg version="1.1" id="Layer_1" xmlns="http://www.w3.org/2000/svg" xmlns:xlink="http://www.w3.org/1999/xlink" x="0px" y="0px"
	 viewBox="0 0 384 512" style="enable-background:new 0 0 384 512;" xml:space="preserve">
<style type="text/css">
	.st0{fill:#1847BF;}
</style>
<g id="Layer_8">
	<path class="st0" d="M289,249v28c0,6.6-5.4,12-12,12H109c-6.6,0-12-5.4-12-12v-28c0-6.6,5.4-12,12-12h168
		C283.6,237,289,242.4,289,249z M277,321H109c-6.6,0-12,5.4-12,12v28c0,6.6,5.4,12,12,12h168c6.6,0,12-5.4,12-12v-28
		C289,326.4,283.6,321,277,321z M385,132.9V465c0,26.5-21.5,48-48,48H49c-26.5,0-48-21.5-48-48V49C1,22.5,22.5,1,49,1h204.1
		C265.8,1,278,6.1,287,15.1L370.9,99C379.9,107.9,385,120.2,385,132.9z M257,52.9V129h76.1L257,52.9z M337,465V177H233
		c-13.3,0-24-10.7-24-24V49H49v416H337z"/>
</g>
</svg>
