<?xml version="1.0" encoding="utf-8"?>
<!-- Generator: Adobe Illustrator 22.1.0, SVG Export Plug-In . SVG Version: 6.00 Build 0)  -->
<svg version="1.1" id="Layer_1" xmlns="http://www.w3.org/2000/svg" xmlns:xlink="http://www.w3.org/1999/xlink" x="0px" y="0px"
	 width="216px" height="160px" viewBox="0 0 216 160" style="enable-background:new 0 0 216 160;" xml:space="preserve">
<style type="text/css">
	.st0{fill:#D4D3D7;}
</style>
<path class="st0" d="M108,9.8C69.2,9.8,37.8,41.2,37.8,80c0,38.8,31.4,70.2,70.2,70.2s70.2-31.4,70.2-70.2
	C178.2,41.2,146.8,9.8,108,9.8z M108,136.6c-31.3,0-56.6-25.3-56.6-56.6c0-31.3,25.3-56.6,56.6-56.6c31.3,0,56.6,25.3,56.6,56.6
	C164.6,111.3,139.3,136.6,108,136.6z M138.4,64.4c0,19-20.5,19.3-20.5,26.3v1.8c0,1.9-1.5,3.4-3.4,3.4h-12.9c-1.9,0-3.4-1.5-3.4-3.4
	V90c0-10.1,7.7-14.2,13.5-17.4c5-2.8,8-4.7,8-8.4c0-4.9-6.2-8.1-11.3-8.1c-6.6,0-9.6,3.1-13.9,8.5c-1.1,1.4-3.2,1.7-4.7,0.6l-7.9-6
	c-1.4-1.1-1.8-3.1-0.7-4.6c6.7-9.8,15.2-15.3,28.5-15.3C123.5,39.2,138.4,50.1,138.4,64.4z M119.9,111.7c0,6.6-5.3,11.9-11.9,11.9
	s-11.9-5.3-11.9-11.9s5.3-11.9,11.9-11.9S119.9,105.1,119.9,111.7z"/>
</svg>
