<svg xmlns="http://www.w3.org/2000/svg" fill="none" viewBox="0 0 24 24">
  <path fill="#371376" d="M20.5714 9.85714h-6.4285V3.42857C14.1429 2.63973 13.5031 2 12.7143 2h-1.4286c-.7888 0-1.42856.63973-1.42856 1.42857v6.42857H3.42857C2.63973 9.85714 2 10.4969 2 11.2857v1.4286c0 .7888.63973 1.4286 1.42857 1.4286h6.42857v6.4285c0 .7889.63976 1.4286 1.42856 1.4286h1.4286c.7888 0 1.4286-.6397 1.4286-1.4286v-6.4285h6.4285c.7889 0 1.4286-.6398 1.4286-1.4286v-1.4286c0-.7888-.6397-1.42856-1.4286-1.42856Z"/>
</svg>
