<svg width="316" height="361" viewBox="0 0 316 361" fill="none" xmlns="http://www.w3.org/2000/svg">
<path d="M282.143 22.5625H33.8571C15.1581 22.5625 0 37.7146 0 56.4062V304.594C0 323.285 15.1581 338.438 33.8571 338.438H282.143C300.842 338.438 316 323.285 316 304.594V56.4062C316 37.7146 300.842 22.5625 282.143 22.5625ZM282.143 304.594H33.8571V56.4062H282.143V304.594ZM256.846 134.159L135.109 254.872C131.79 258.162 126.431 258.141 123.139 254.824L59.1061 190.298C55.8142 186.98 55.8354 181.623 59.1548 178.332L75.1798 162.442C78.4985 159.152 83.8578 159.173 87.1497 162.491L129.324 204.991L229.028 106.128C232.347 102.837 237.706 102.858 240.998 106.176L256.894 122.194C260.186 125.512 260.165 130.869 256.846 134.159Z" fill="#1847BF"/>
</svg>
