<svg width="18" height="22" viewBox="0 0 18 22" fill="none" xmlns="http://www.w3.org/2000/svg">
<path d="M9 21.5C10.4191 21.5 11.5702 20.3249 11.5702 18.875H6.42978C6.42978 20.3249 7.5809 21.5 9 21.5ZM17.654 15.3596C16.8778 14.5081 15.4253 13.2271 15.4253 9.03125C15.4253 5.84434 13.2364 3.29316 10.2849 2.66727V1.8125C10.2849 1.08775 9.70955 0.5 9 0.5C8.29045 0.5 7.71509 1.08775 7.71509 1.8125V2.66727C4.76358 3.29316 2.57466 5.84434 2.57466 9.03125C2.57466 13.2271 1.12221 14.5081 0.345964 15.3596C0.104894 15.6241 -0.00198114 15.9403 2.77789e-05 16.25C0.00444741 16.9227 0.521544 17.5625 1.28976 17.5625H16.7102C17.4785 17.5625 17.996 16.9227 18 16.25C18.002 15.9403 17.8951 15.6237 17.654 15.3596Z" fill="#1847BF"/>
</svg>
