<svg xmlns="http://www.w3.org/2000/svg" xmlns:xlink="http://www.w3.org/1999/xlink" version="1.1" id="Layer_1" x="0" y="0" width="216" height="160" viewBox="0 0 216 160" enable-background="new 0 0 216 160" xml:space="preserve">
  <path fill="#FFFFFF" d="M77.15 19.55l-6.1 6.1c-2 2.1-3 4.6-3 7.4 0 2.9 1 5.3 3 7.3l39.6 39.7 -39.6 39.6c-2 2-3 4.5-3 7.3 0 2.8 1 5.3 3 7.4l6.1 6c2.1 2.1 4.5 3.1 7.4 3.1s5.4-1 7.3-3.1l53-53c2.1-2 3.1-4.4 3.1-7.3 0-2.9-1-5.3-3.1-7.4L91.95 19.55c-2-2-4.5-3-7.3-3C81.75 16.55 79.25 17.55 77.15 19.55z"/>
</svg>
