<svg width="83" height="73" viewBox="0 0 83 73" fill="none" xmlns="http://www.w3.org/2000/svg">
<path d="M0 9.125C0 4.09199 4.08852 0 9.11726 0H31.9104V18.25C31.9104 20.7736 33.9475 22.8125 36.469 22.8125H54.7036V28.316C44.176 31.2959 36.469 40.977 36.469 52.4688C36.469 60.8951 40.6145 68.3377 46.9681 72.9002C46.5123 72.9715 46.0564 73 45.5863 73H9.11726C4.08852 73 0 68.908 0 63.875V9.125ZM54.7036 18.25H36.469V0L54.7036 18.25ZM61.5415 31.9375C66.9821 31.9375 72.1999 34.1006 76.047 37.951C79.8941 41.8013 82.0553 47.0235 82.0553 52.4688C82.0553 57.914 79.8941 63.1362 76.047 66.9865C72.1999 70.8369 66.9821 73 61.5415 73C56.1009 73 50.8831 70.8369 47.036 66.9865C43.1889 63.1362 41.0277 57.914 41.0277 52.4688C41.0277 47.0235 43.1889 41.8013 47.036 37.951C50.8831 34.1006 56.1009 31.9375 61.5415 31.9375ZM61.5415 66.1562C62.4483 66.1562 63.3179 65.7957 63.9591 65.154C64.6003 64.5123 64.9605 63.6419 64.9605 62.7344C64.9605 61.8268 64.6003 60.9565 63.9591 60.3147C63.3179 59.673 62.4483 59.3125 61.5415 59.3125C60.6347 59.3125 59.7651 59.673 59.1239 60.3147C58.4827 60.9565 58.1225 61.8268 58.1225 62.7344C58.1225 63.6419 58.4827 64.5123 59.1239 65.154C59.7651 65.7957 60.6347 66.1562 61.5415 66.1562ZM52.4242 45.8531V46.7656C52.4242 48.0203 53.4499 49.0469 54.7036 49.0469C55.9572 49.0469 56.9829 48.0203 56.9829 46.7656V45.8531C56.9829 45.0975 57.5954 44.4844 58.3505 44.4844H64.12C65.2169 44.4844 66.1001 45.3684 66.1001 46.4662C66.1001 47.2076 65.687 47.8777 65.046 48.2199L60.4873 50.6152C59.7323 51.0145 59.2622 51.7844 59.2622 52.6398V54.75C59.2622 56.0047 60.2879 57.0312 61.5415 57.0312C62.7951 57.0312 63.8208 56.0047 63.8208 54.75V54.0229L67.1686 52.2691C69.3197 51.1428 70.6588 48.9043 70.6588 46.4805C70.6588 42.859 67.7241 39.9361 64.12 39.9361H58.3505C55.0739 39.9361 52.4242 42.5881 52.4242 45.8674V45.8531Z" fill="#371376"/>
</svg>
