<?xml version="1.0" encoding="utf-8"?>
<!-- Generator: Adobe Illustrator 22.1.0, SVG Export Plug-In . SVG Version: 6.00 Build 0)  -->
<svg version="1.1" id="Layer_1" focusable="false" xmlns="http://www.w3.org/2000/svg" xmlns:xlink="http://www.w3.org/1999/xlink"
	 x="0px" y="0px" viewBox="0 0 384 512" style="enable-background:new 0 0 384 512;" xml:space="preserve">
<style type="text/css">
	.st0{fill:#4B4B4B;}
</style>
<path class="st0" d="M377,105L279.1,7c-4.5-4.5-10.6-7-17-7H256v128h128v-6.1C384,115.6,381.5,109.5,377,105z M128.4,336
	c-17.9,0-32.4,12.1-32.4,27c0,15,14.6,27,32.5,27s32.4-12.1,32.4-27S146.3,336,128.4,336z M224,136V0h-63.6v32h-32V0H24
	C10.7,0,0,10.7,0,24v464c0,13.3,10.7,24,24,24h336c13.3,0,24-10.7,24-24V160H248C234.8,160,224,149.2,224,136z M95.9,32h32v32h-32
	V32z M128.2,416c-33.2,0-58-30.4-51.4-62.9L96.4,256v-32h32v-32h-32v-32h32v-32h-32V96h32V64h32v32h-32v32h32v32h-32v32h32v32h-32
	v32h22.1c5.7,0,10.7,4.1,11.8,9.7l17.3,87.7C186,385.8,161.2,416,128.2,416L128.2,416z"/>
</svg>
