<svg xmlns="http://www.w3.org/2000/svg" width="34" height="34" viewBox="0 0 34 34" fill="none">
  <path d="M31.2858 13.4286H20.5715V2.71433C20.5715 1.39959 19.5052 0.333374 18.1905 0.333374H15.8096C14.4948 0.333374 13.4286 1.39959 13.4286 2.71433V13.4286H2.71433C1.39959 13.4286 0.333374 14.4948 0.333374 15.8096V18.1905C0.333374 19.5052 1.39959 20.5715 2.71433 20.5715H13.4286V31.2858C13.4286 32.6005 14.4948 33.6667 15.8096 33.6667H18.1905C19.5052 33.6667 20.5715 32.6005 20.5715 31.2858V20.5715H31.2858C32.6005 20.5715 33.6667 19.5052 33.6667 18.1905V15.8096C33.6667 14.4948 32.6005 13.4286 31.2858 13.4286Z" fill="#FFFFFF"/>
</svg>
