<?xml version="1.0" encoding="utf-8"?>
<!-- Generator: Adobe Illustrator 22.1.0, SVG Export Plug-In . SVG Version: 6.00 Build 0)  -->
<svg version="1.1" id="Layer_1" xmlns="http://www.w3.org/2000/svg" xmlns:xlink="http://www.w3.org/1999/xlink" x="0px" y="0px"
	 viewBox="0 0 96 37" style="enable-background:new 0 0 96 37;" xml:space="preserve">
<style type="text/css">
	.st0{fill:#1294CB;}
</style>
<title>TeachitMaths</title>
<path class="st0" d="M11,32.1c-0.4,0.2-0.8,0.3-1.3,0.4c-0.5,0.1-1,0.1-1.5,0.1c-1.6,0.1-3.1-0.6-4-1.9c-0.7-1.1-1-2.4-1-3.7V14.9
	H1.5v-2.1h1.9V7.7h3.5v5.1h3.3v2.1H6.8v12.4c-0.1,0.7,0.2,1.5,0.7,2c0.5,0.4,1.1,0.7,1.8,0.6c0.4,0,0.8-0.1,1.2-0.2L11,32.1z"/>
<path class="st0" d="M11.2,22.6c-0.1-2.7,1-5.2,2.9-7.1c1.9-1.9,4.5-2.9,7.2-2.9H24v2.7h-1.9c-1.5-0.1-3.1,0.3-4.4,1
	c-1.8,1.1-2.9,2.9-2.9,5h7.4V24h-7.4c0.1,2,1.2,3.9,2.9,5c1.4,0.7,2.9,1.1,4.5,1H24v2.7h-2.7c-2.7,0.1-5.3-1-7.1-2.9
	C12.2,27.9,11.1,25.3,11.2,22.6z"/>
<path class="st0" d="M41.2,32.3H34c-2,0.1-4.1-0.2-6-0.9c-2.2-0.8-3.6-3-3.5-5.3c0-1.9,1-3.7,2.6-4.6c2.1-1.2,4.4-1.8,6.8-1.7h2.7
	l0.1,2.3h-3.9c-1.3,0-2.5,0.4-3.5,1.2c-1.6,1.1-2,3.3-0.9,5c0.2,0.2,0.3,0.4,0.6,0.6c1,0.8,2.6,1.1,5,1.1c2,0,3.3-0.3,3.6-0.8
	c0.2-0.4,0.4-1.7,0.4-4c0-4.6-0.3-7.4-0.9-8.4s-2.3-1.5-5-1.5c-1.1,0-2.2,0.1-3.3,0.3c-0.7,0.1-1.4,0.3-2.1,0.5v-2.3
	c0.4-0.4,1-0.6,1.5-0.7c1.4-0.3,2.8-0.4,4.3-0.4c3.5,0,5.8,0.8,7.2,2.3c1,1.2,1.5,3.1,1.5,5.6L41.2,32.3L41.2,32.3z"/>
<path class="st0" d="M43,22.6c-0.1-2.7,1-5.2,2.9-7.1c1.9-1.9,4.5-2.9,7.1-2.9h2.7v2.7h-1.8c-1.7-0.1-3.3,0.3-4.8,1.2
	c-1.7,1.2-2.6,3.2-2.6,6.1s0.8,5,2.6,6.1c1.4,0.8,3.1,1.3,4.8,1.2h1.8v2.7H53c-5.4,0.1-9.9-4.1-10-9.5C43,22.9,43,22.7,43,22.6
	L43,22.6z"/>
<path class="st0" d="M74.6,22.9c0,1.6-0.2,3.3-0.4,4.9c-0.4,2.7-0.8,4.3-1.3,4.6h-3.2c0.5-1.4,0.8-2.9,1.1-4.4
	c0.3-1.7,0.4-3.3,0.4-5c0-2.8-0.6-4.9-1.7-6.2c-1.2-1.3-2.9-2-4.7-1.9c-0.8,0-1.6,0.1-2.4,0.2v-2c0.4-0.2,0.9-0.3,1.3-0.3
	c0.7-0.1,1.4-0.1,2.1-0.1c3.2,0,5.5,1.1,7,3.4C74.1,18.1,74.7,20.5,74.6,22.9z M61.1,32.3h-3.3V7.7h3.3V32.3z"/>
<path class="st0" d="M80.2,8.6c0.1,0.1,0.1,0.2,0.1,0.3c0,0.5-0.3,1-0.6,1.4c-0.3,0.4-0.7,0.7-1.3,0.8c-0.5-0.1-1-0.4-1.2-0.8
	c-0.4-0.4-0.6-0.9-0.7-1.4c0-0.1,0-0.2,0.1-0.3c0.2-0.1,0.4-0.2,0.6-0.2c0.4-0.1,0.8-0.1,1.2-0.1C79.1,8.2,79.7,8.3,80.2,8.6z
	 M80.2,32.3h-3.6V12.8h3.6V32.3z"/>
<path class="st0" d="M91.4,32.1c-0.4,0.2-0.8,0.3-1.3,0.4c-0.5,0.1-1,0.1-1.5,0.1c-1.6,0.1-3.1-0.6-4-1.9c-0.7-1.1-1-2.4-1-3.7V14.9
	h-1.7v-2.1h1.9V7.7h3.5v5.1h3.3v2.1h-3.3v12.4c-0.1,0.7,0.2,1.5,0.7,2c0.5,0.4,1.2,0.7,1.8,0.6c0.4,0,0.8-0.1,1.2-0.2L91.4,32.1z"/>
</svg>
