<svg xmlns="http://www.w3.org/2000/svg" version="1.1" x="0" y="0" width="20" height="20" viewBox="0 0 20 20" enable-background="new 0 0 20 20" xml:space="preserve"><polygon fill-rule="evenodd" clip-rule="evenodd" fill="#1847BF" points="0 8 0 5 5 5 5 0 8 0 8 5 8 8 5.5 8 "/><polygon fill-rule="evenodd" clip-rule="evenodd" fill="#1847BF" points="20 8 20 5 15 5 15 0 12 0 12 5 12 8 14.5 8 "/><polygon fill-rule="evenodd" clip-rule="evenodd" fill="#1847BF" points="0 12 0 15 5 15 5 20 8 20 8 15 8 12 5.5 12 "/><polygon fill-rule="evenodd" clip-rule="evenodd" fill="#1847BF" points="20 12 20 15 15 15 15 20 12 20 12 15 12 12 14.5 12 "/></svg>