<svg xmlns="http://www.w3.org/2000/svg" version="1.1" x="0" y="0" width="20" height="20" viewBox="0 0 20 20" enable-background="new 0 0 20 20" xml:space="preserve"><polygon fill-rule="evenodd" clip-rule="evenodd" fill="#1847BF" points="8 0 8 3 3 3 3 8 0 8 0 3 0 0 2.5 0 "/><polygon fill-rule="evenodd" clip-rule="evenodd" fill="#1847BF" points="8 20 8 17 3 17 3 12 0 12 0 17 0 20 2.5 20 "/><polygon fill-rule="evenodd" clip-rule="evenodd" fill="#1847BF" points="12 0 12 3 17 3 17 8 20 8 20 3 20 0 17.5 0 "/><polygon fill-rule="evenodd" clip-rule="evenodd" fill="#1847BF" points="12 20 12 17 17 17 17 12 20 12 20 17 20 20 17.5 20 "/></svg>