<svg xmlns="http://www.w3.org/2000/svg" fill="none" viewBox="0 0 24 24">
  <path fill="#fff" d="M6.47679 21.9998H2.33036V8.64712h4.14643V21.9998ZM4.40134 6.82569C3.07545 6.82569 2 5.72748 2 4.40158c0-.63687.253-1.24766.70334-1.698.45033-.45034 1.06112-.70334 1.698-.70334.63687 0 1.24766.253 1.698.70334.45034.45034.70334 1.06113.70334 1.698 0 1.3259-1.07589 2.42411-2.40134 2.42411ZM21.9955 21.9998H17.858v-6.5c0-1.5491-.0312-3.5357-2.1558-3.5357-2.1558 0-2.4861 1.683-2.4861 3.4241v6.6116H9.07411V8.64712h3.97679v1.82138h.058c.5536-1.04906 1.9058-2.1562 3.9232-2.1562C21.2286 8.3123 22 11.0757 22 14.665v7.3348h-.0045Z"/>
</svg>
