<?xml version="1.0" encoding="utf-8"?>
<!-- Generator: Adobe Illustrator 22.1.0, SVG Export Plug-In . SVG Version: 6.00 Build 0)  -->
<svg version="1.1" id="Layer_1" xmlns="http://www.w3.org/2000/svg" xmlns:xlink="http://www.w3.org/1999/xlink" x="0px" y="0px"
	 viewBox="0 0 384 512" style="enable-background:new 0 0 384 512;" xml:space="preserve">
<style type="text/css">
	.st0{fill:#1847BF;}
</style>
<g id="Layer_7">
	<path class="st0" d="M382.4,140.3V153c0,3.5-2.8,6.4-6.4,6.4h-19v9.5c0,5.3-4.3,9.5-9.5,9.5H36c-5.3,0-9.5-4.3-9.5-9.5v-9.5H7.4
		c-3.5,0-6.4-2.8-6.4-6.4v-12.7c0-2.6,1.5-4.9,3.9-5.9l184.4-69.9c1.6-0.6,3.3-0.6,4.9,0l184.4,69.9
		C380.9,135.4,382.4,137.7,382.4,140.3z"/>
	<path class="st0" d="M363.4,381.9H20.1c-10.6,0-19.1,8.5-19.1,19v12.7c0,3.5,2.8,6.4,6.4,6.4h368.7c3.5,0,6.4-2.8,6.4-6.4v-12.7
		C382.4,390.4,373.9,381.9,363.4,381.9z"/>
	<path class="st0" d="M64.6,191.1v152.6H36c-5.3,0-9.5,4.3-9.5,9.5v15.9H357v-15.9c0-5.3-4.3-9.5-9.5-9.5h-28.6V191.1H268v152.6
		h-50.9V191.1h-50.9v152.6h-50.9V191.1H64.6z"/>
</g>
</svg>
