<svg version="1.1" id="Layer_1" xmlns="http://www.w3.org/2000/svg" x="0" y="0" viewBox="0 0 216 160" xml:space="preserve"><style>.st0{display:none}.st1{display:inline}.st2,.st3{fill:#0f71ac}.st3{display:inline}.st4{fill:#1847BF}</style><g id="Layer_2_1_" class="st0"><g class="st1"><path class="st2" d="M178.8 97l-7.1-7.1c-2.8-2.8-7.7-2.8-10.5 0L123 128.1l-5.3 19.3-1.3 1.3c-1 1-1 2.5 0 3.5.5.5 1.1.7 1.7.7s1.3-.2 1.8-.7l1.3-1.3 19.3-5.3 38.2-38.2c3-2.8 3-7.5.1-10.4zm-46.1 32.4l21.4-21.4 6.5 6.5-21.3 21.5-6.6-6.6zm-5.2 6.8l5 5-7 2 2-7zm44.8-33.2l-6.1 6.1-6.5-6.5 6.1-6.1c.9-.9 2.5-.9 3.5 0l3.1 3.1c.9.8.9 2.4-.1 3.4zM59.2 94.1h64.6c1.4 0 3.5-2.1 3.5-3.5s-2.1-3.5-3.5-3.5H59.2c-1.4 0-3.5 2.1-3.5 3.5s2.2 3.5 3.5 3.5zM59.2 54.9h32.3c1.4 0 3.5-2.1 3.5-3.5s-2.1-3.5-3.5-3.5H59.2c-1.4 0-3.5 2.1-3.5 3.5.1 1.4 2.2 3.5 3.5 3.5z"/><path class="st2" d="M104 145.4H48.8V29.1h13.4v10c0 1.4 1.1 2.5 2.5 2.5h61.1c1.4 0 2.5-1.1 2.5-2.5v-10h13.4v53.7c0 1.4 2.1 3.5 3.5 3.5s3.5-2.1 3.5-3.5V24.6c0-1.4-1.1-2.5-2.5-2.5h-17.9v-10c0-1.4-1.1-2.5-2.5-2.5h-14.9v-5c0-1.4-1.1-2.5-2.5-2.5H82.1c-1.4 0-2.5 1.1-2.5 2.5v5H64.7c-1.4 0-2.5 1.1-2.5 2.5v10H44.3c-1.4 0-2.5.9-2.5 2.5v123.2c0 3.4 2.1 4.5 3.5 4.5H104c1.4 0 3.5-2.1 3.5-3.5s-2.2-3.4-3.5-3.4zM86.6 9.2H104v10H86.6v-10zm-17.4 7.5h10.4v7c0 1.4 1.1 2.5 2.5 2.5h26.4c1.4 0 2.5-1.1 2.5-2.5v-7h10.4v18H69.2v-10-8z"/></g><path class="st3" d="M59.2 133.3h42.3c1.4 0 3.5-2.1 3.5-3.5s-2.1-3.5-3.5-3.5H59.2c-1.4 0-3.5 2.1-3.5 3.5s2.2 3.5 3.5 3.5zM59.2 74.5h64.6c1.4 0 3.5-2.1 3.5-3.5s-2.1-3.5-3.5-3.5H59.2c-1.4 0-3.5 2.1-3.5 3.5s2.2 3.5 3.5 3.5zM59.2 113.7h42.3c1.4 0 3.5-2.1 3.5-3.5s-2.1-3.5-3.5-3.5H59.2c-1.4 0-3.5 2.1-3.5 3.5.1 1.4 2.2 3.5 3.5 3.5z"/></g><g id="Layer_3"><path class="st4" d="M160 13.9h-18.9c-2.2 0-3.9 1.7-3.9 3.9s1.7 3.9 3.9 3.9H160c3.6 0 6.7 3 6.7 6.7v18.9c0 2.2 1.7 3.9 3.9 3.9s3.9-1.7 3.9-3.9V28.4c0-8-6.5-14.5-14.5-14.5zM43.6 51.3c2.2 0 3.9-1.7 3.9-3.9v-19c0-3.6 3-6.7 6.7-6.7h18.9c2.2 0 3.9-1.7 3.9-3.9s-1.7-3.9-3.9-3.9H54.2c-8 0-14.5 6.5-14.5 14.5v18.9c0 2.2 1.7 4 3.9 4zM73.1 140.9H54.2c-3.6 0-6.7-3-6.7-6.7v-18.9c0-2.2-1.7-3.9-3.9-3.9s-3.9 1.7-3.9 3.9v18.9c0 8 6.5 14.5 14.5 14.5h18.9c2.2 0 3.9-1.7 3.9-3.9s-1.7-3.9-3.9-3.9zM170.6 111.3c-2.2 0-3.9 1.7-3.9 3.9v18.9c0 3.6-3 6.7-6.7 6.7h-18.9c-2.2 0-3.9 1.7-3.9 3.9s1.7 3.9 3.9 3.9H160c8 0 14.5-6.5 14.5-14.5v-18.9c0-2.1-1.8-3.9-3.9-3.9zM129.6 42.9h12.5c1.7 0 3.1 1.4 3.1 3.1v12.5c0 2.2 1.7 3.9 3.9 3.9s3.9-1.7 3.9-3.9V46c0-6-5-11-11-11h-12.5c-2.2 0-3.9 1.7-3.9 3.9s1.8 4 4 4zM61 46v12.5c0 2.2 1.7 3.9 3.9 3.9s3.9-1.7 3.9-3.9V46c0-1.7 1.4-3.1 3.1-3.1h12.5c2.2 0 3.9-1.7 3.9-3.9s-1.7-3.9-3.9-3.9H72C65.9 35 61 39.9 61 46zM84.6 119.2H72c-1.7 0-3.1-1.4-3.1-3.1v-12.5c0-2.2-1.7-3.9-3.9-3.9s-3.9 1.7-3.9 3.9v12.5c0 6 5 11 11 11h12.5c2.2 0 3.9-1.7 3.9-3.9s-1.8-4-3.9-4zM153.2 116.2v-12.5c0-2.2-1.7-3.9-3.9-3.9s-3.9 1.7-3.9 3.9v12.5c0 1.7-1.4 3.1-3.1 3.1h-12.5c-2.2 0-3.9 1.7-3.9 3.9s1.7 3.9 3.9 3.9h12.5c5.9.1 10.9-4.9 10.9-10.9zM40 81.4c0 2.2 1.7 3.9 3.9 3.9h126.4c2.2 0 3.9-1.7 3.9-3.9s-1.7-3.9-3.9-3.9H43.9c-2.2-.2-3.9 1.7-3.9 3.9z"/></g><g id="Layer_4" class="st0"><g class="st1"><path class="st4" d="M182.2 54.4c-4.8-4.8-12.5-4.8-17.3 0l-12.2 12.2V34.4c0-3.3-1.3-6.3-3.6-8.6l-11.5-11.5c-2.3-2.3-5.4-3.6-8.6-3.6H59.2c-6.7 0-12.2 5.5-12.2 12.2v114.4c0 6.7 5.5 12.2 12.2 12.2h81.3c6.7 0 12.2-5.5 12.2-12.2v-36.2l29.5-29.5c4.8-4.7 4.8-12.4 0-17.2zm-53.9-35.6c.8 0 2.2-.1 3.6 1.2l11.5 11.5c1.3 1.3 1.2 2.7 1.2 3.6h-16.3V18.8zm16.3 118.5c0 2.2-1.8 4.1-4.1 4.1H59.2c-2.2 0-4.1-1.8-4.1-4.1V22.9c0-2.2 1.8-4.1 4.1-4.1h61v20.3c0 2.2 1.8 4.1 4.1 4.1h20.3v31.5l-12 12-5.7 5.7c-.4.4-.8 1-1 1.6l-5.8 17.3c-.5 1.5-.1 3.1 1 4.2s2.7 1.5 4.2 1l17.3-5.8c.6-.2 1.1-.5 1.6-1l.5-.5-.1 28.1zm-9.1-41.9l5.8 5.8-2.2 2.2-8.6 2.9 2.9-8.6 2.1-2.3zm11.5 0l-5.8-5.8c3.1-3.1 16.7-16.7 19.5-19.6l5.8 5.8L147 95.4zm29.5-29.5l-4.2 4.2-5.8-5.8 4.2-4.2c1.6-1.6 4.2-1.6 5.8 0 1.5 1.6 1.5 4.2 0 5.8z"/></g><g class="st1"><path class="st4" d="M124.3 51.4h-57c-2.2 0-4.1 1.8-4.1 4.1s1.8 4.1 4.1 4.1h56.9c2.2 0 4.1-1.8 4.1-4.1s-1.8-4.1-4-4.1z"/></g><g class="st1"><path class="st4" d="M108 67.6H67.3c-2.2 0-4.1 1.8-4.1 4.1s1.8 4.1 4.1 4.1H108c2.2 0 4.1-1.8 4.1-4.1s-1.9-4.1-4.1-4.1z"/></g><g class="st1"><path class="st4" d="M108 83.9H67.3c-2.2 0-4.1 1.8-4.1 4.1s1.8 4.1 4.1 4.1H108c2.2 0 4.1-1.8 4.1-4.1s-1.9-4.1-4.1-4.1z"/></g><g class="st1"><path class="st4" d="M108 100.2H67.3c-2.2 0-4.1 1.8-4.1 4.1s1.8 4.1 4.1 4.1H108c2.2 0 4.1-1.8 4.1-4.1s-1.9-4.1-4.1-4.1z"/></g><g class="st1"><path class="st4" d="M124.3 125.1H99.9c-2.2 0-4.1 1.8-4.1 4.1 0 2.2 1.8 4.1 4.1 4.1h24.4c2.2 0 4.1-1.8 4.1-4.1-.1-2.3-1.9-4.1-4.1-4.1z"/></g></g></svg>