<?xml version="1.0" encoding="utf-8"?>
<!-- Generator: Adobe Illustrator 22.1.0, SVG Export Plug-In . SVG Version: 6.00 Build 0)  -->
<svg version="1.1" id="Layer_1" xmlns="http://www.w3.org/2000/svg" xmlns:xlink="http://www.w3.org/1999/xlink" x="0px" y="0px"
	 viewBox="0 0 216 160" style="enable-background:new 0 0 216 160;" xml:space="preserve">
<style type="text/css">
	.st0{fill:#1847BF;}
</style>
<title>c-icon__external-link--blue3-01</title>
<path class="st0" d="M41.3,160C34,160,28,154,28,146.7V33.8c0-7.4,6-13.3,13.3-13.3h59.5c1.7,0,3.1,1.4,3.1,3.1v10.3
	c0,1.7-1.4,3.1-3.1,3.1H50.6c-3.4,0-6.2,2.8-6.2,6.2v94.4c0,3.4,2.8,6.2,6.2,6.2h94.4c3.4,0,6.2-2.8,6.2-6.2v-40
	c0-1.7,1.4-3.1,3.1-3.1h10.3c1.7,0,3.1,1.4,3.1,3.1v49.2c0,7.4-6,13.3-13.3,13.3H41.3z M81.9,119c-1.5,0-2.9-0.6-4-1.7l-7.3-7.3
	c-2.1-2.1-2.1-5.7,0.1-7.9l79.6-79.5L137.3,9.6c-2-2-1.9-4.5-1.2-6.2c0.7-1.7,2.4-3.5,5.2-3.5h44.6c1.1,0,2.1,0.9,2.1,2.1v44.6
	c0,2-0.9,3.4-1.7,4.1c-1.1,1-2.5,1.6-4,1.6l0,0c-1,0-2.6-0.3-3.9-1.7l-12.9-12.9l-79.5,79.6C84.8,118.4,83.4,119,81.9,119z"/>
</svg>
