<svg xmlns="http://www.w3.org/2000/svg" version="1.1" x="0" y="0" width="45" height="35.8" viewBox="0 0 45 35.8" enable-background="new 0 0 44.987 35.8" xml:space="preserve"><path fill-rule="evenodd" clip-rule="evenodd" fill="#371376" d="M45 18c0-0.2-0.1-0.4-0.3-0.6l-6.1-5.1V1c0-0.2-0.1-0.5-0.2-0.6 -0.2-0.2-0.4-0.2-0.6-0.2h-5.4c-0.3 0-0.5 0.1-0.6 0.3 -0.2 0.2-0.2 0.4-0.2 0.6v5.5l-6.8-5.7c-0.6-0.5-1.3-0.7-2.1-0.7 -0.8 0-1.5 0.3-2.1 0.7L0.3 17.4c-0.2 0.2-0.3 0.3-0.3 0.6 0 0.3 0.1 0.5 0.2 0.7l1.7 2.1c0.1 0.2 0.3 0.3 0.6 0.3 0.2 0 0.5 0 0.7-0.2l19.3-16.1 19.3 16.1c0.2 0.1 0.3 0.2 0.6 0.2h0.1c0.3 0 0.4-0.1 0.6-0.3l1.7-2.1C44.9 18.5 45 18.3 45 18zM38.6 20.5L22.5 7.2 6.5 20.5c0 0 0 0.1 0 0.1 0 0 0 0.1 0 0.1v13.4c0 0.5 0.2 0.9 0.5 1.3 0.4 0.4 0.8 0.5 1.3 0.5h10.7V25.1h7.1V35.8h10.7c0.5 0 0.9-0.2 1.3-0.5 0.3-0.3 0.5-0.8 0.5-1.2V20.6C38.6 20.6 38.6 20.5 38.6 20.5z"/></svg>