<svg xmlns="http://www.w3.org/2000/svg" xmlns:xlink="http://www.w3.org/1999/xlink" version="1.1" id="Layer_1" x="0" y="0" width="216" height="160" viewBox="0 0 216 160" enable-background="new 0 0 216 160" xml:space="preserve">
  <path fill="#371376" d="M170.89 93.53c0 0.29-0.02 0.49-0.08 0.6 -3.6 15.13-11.17 27.41-22.69 36.78 -11.51 9.4-25.01 14.09-40.46 14.09 -8.24 0-16.23-1.56-23.91-4.64 -7.7-3.11-14.57-7.54-20.61-13.29l-10.92 10.91c-1.08 1.08-2.35 1.6-3.8 1.6 -1.47 0-2.74-0.53-3.81-1.6 -1.08-1.06-1.61-2.33-1.61-3.8V96.26c0-1.47 0.53-2.73 1.6-3.81 1.08-1.09 2.35-1.61 3.82-1.61h37.93c1.46 0 2.73 0.52 3.81 1.61 1.07 1.07 1.6 2.33 1.6 3.81 0 1.46-0.55 2.76-1.6 3.81l-11.6 11.59c3.99 3.73 8.54 6.62 13.63 8.65 5.08 2.06 10.35 3.05 15.82 3.05 7.56 0 14.61-1.84 21.15-5.51 6.54-3.65 11.81-8.7 15.75-15.15 0.62-0.94 2.12-4.25 4.47-9.89 0.47-1.3 1.31-1.94 2.55-1.94h16.27c0.73 0 1.36 0.26 1.91 0.81C170.64 92.18 170.89 92.82 170.89 93.53zM173 25.83v37.92c0 1.47-0.52 2.73-1.6 3.81 -1.06 1.08-2.35 1.6-3.82 1.6h-37.92c-1.47 0-2.73-0.53-3.81-1.6 -1.06-1.06-1.6-2.33-1.6-3.81 0-1.47 0.53-2.74 1.6-3.8l11.68-11.69c-8.36-7.72-18.22-11.61-29.54-11.61 -7.58 0-14.61 1.83-21.17 5.51 -6.54 3.67-11.79 8.71-15.74 15.15 -0.62 0.96-2.1 4.28-4.49 9.91 -0.44 1.29-1.29 1.95-2.55 1.95H47.21c-0.73 0-1.37-0.26-1.91-0.79 -0.55-0.53-0.79-1.18-0.79-1.91v-0.6c3.67-15.13 11.29-27.39 22.86-36.78C78.94 19.7 92.48 14.99 108 14.99c8.21 0 16.25 1.57 24.02 4.71 7.81 3.13 14.72 7.54 20.75 13.25l11.01-10.92c1.06-1.08 2.35-1.61 3.79-1.61 1.47 0 2.76 0.53 3.82 1.61C172.46 23.09 173 24.37 173 25.83z"/>
</svg>
