<svg width="56" height="64" viewBox="0 0 56 64" fill="none" xmlns="http://www.w3.org/2000/svg">
<g clip-path="url(#clip0_614_10977)">
<path d="M36 0H20H16C13.7875 0 12 1.7875 12 4C12 6.2125 13.7875 8 16 8V24.6C16 26.075 15.5875 27.5375 14.8125 28.7875L1.2875 50.775C0.45 52.15 0 53.7125 0 55.325C0 60.1125 3.8875 64 8.675 64H47.325C52.1125 64 56 60.1125 56 55.325C56 53.725 55.55 52.15 54.7125 50.775L41.1875 28.8C40.4125 27.5375 40 26.0875 40 24.6125V8C42.2125 8 44 6.2125 44 4C44 1.7875 42.2125 0 40 0H36ZM24 24.6V8H32V24.6C32 27.5625 32.825 30.4625 34.375 32.9875L38.6875 40H17.3125L21.625 32.9875C23.175 30.4625 24 27.5625 24 24.6Z" fill="#371376"/>
</g>
<defs>
<clipPath id="clip0_614_10977">
<rect width="56" height="64" fill="white"/>
</clipPath>
</defs>
</svg>
