<svg xmlns="http://www.w3.org/2000/svg" xml:space="preserve" id="Layer_1" x="0" y="0" version="1.1" viewBox="0 0 762.62 428.77">
  <style>
    .st0{fill:#371376}
  </style>
  <path d="M380.36 343.69c-19.8 0-37.7-3.87-53.69-11.61-15.99-7.74-29.83-18.09-41.5-31.03-11.68-12.94-20.69-27.6-27.03-43.98-6.35-16.37-9.52-33.19-9.52-50.45 0-18.02 3.36-35.22 10.09-51.59 6.72-16.37 15.99-30.97 27.79-43.79 11.8-12.81 25.83-22.97 42.07-30.46 16.24-7.48 33.89-11.23 52.92-11.23 19.54 0 37.37 3.94 53.49 11.81 16.12 7.87 29.89 18.41 41.31 31.6 11.42 13.2 20.24 27.92 26.46 44.17 6.22 16.25 9.33 33 9.33 50.26 0 17.77-3.23 34.84-9.71 51.21-6.47 16.37-15.61 30.97-27.41 43.79s-25.77 22.91-41.88 30.27c-16.11 7.36-33.69 11.03-52.72 11.03zm.38-46.45c12.95 0 24.24-2.6 33.89-7.8 9.64-5.2 17.83-12.12 24.56-20.75 6.72-8.63 11.74-18.4 15.04-29.31 3.3-10.91 4.95-21.83 4.95-32.75 0-11.67-1.78-22.97-5.33-33.88-3.56-10.91-8.76-20.56-15.61-28.94-6.85-8.38-15.11-15.1-24.75-20.18-9.65-5.08-20.69-7.61-33.12-7.61-12.44 0-23.55 2.61-33.32 7.8-9.78 5.21-18.03 12.13-24.75 20.75-6.73 8.63-11.8 18.34-15.23 29.13-3.43 10.79-5.14 21.77-5.14 32.93 0 11.68 1.77 22.97 5.33 33.89 3.55 10.92 8.69 20.56 15.42 28.94 6.72 8.38 14.98 15.11 24.75 20.18 9.76 5.07 20.87 7.6 33.31 7.6z" class="st0"/>
  <path d="M289.95 343.59 190.58 73.26h-53.3L37.51 343.59h54.07l22.04-65.77 44.95.08 55.45.1 21.86 65.58h54.07zM163.92 127.7l36.66 109.98-73.52.02 36.86-110zM713.47 343.59 614.09 73.26h-53.3l-99.76 270.33h54.07l22.04-65.77 44.95.08 55.45.1 21.86 65.58h54.07zM587.44 127.7l36.66 109.98-73.52.02 36.86-110z" class="st0"/>
  <path fill="#c8194b" d="M372.32 243.83H426l89.09 99.76h-54.06l-88.71-99.76z"/>
</svg>
