<?xml version="1.0" encoding="utf-8"?>
<!-- Generator: Adobe Illustrator 22.1.0, SVG Export Plug-In . SVG Version: 6.00 Build 0)  -->
<svg version="1.1" id="Layer_1" xmlns="http://www.w3.org/2000/svg" xmlns:xlink="http://www.w3.org/1999/xlink" x="0px" y="0px"
	 viewBox="0 0 384 512" style="enable-background:new 0 0 384 512;" xml:space="preserve">
<style type="text/css">
	.st0{fill:#00AFA0;}
</style>
<path class="st0" d="M384,121.9v6.1H256V0h6.1c6.4,0,12.5,2.5,17,7l97.9,98C381.5,109.5,384,115.6,384,121.9z"/>
<g>
	<path class="st0" d="M322.5,274.3c2.9-0.5,5.4-1.3,7.5-2.5c2.1-1.2,3.8-2.8,5-4.7c1.2-2,1.8-4.4,1.8-7.2v-4.6
		c0-2.2-0.4-4.2-1.1-6.1c-0.7-1.8-1.8-3.4-3.3-4.8c-1.5-1.3-3.3-2.4-5.6-3.2c-2.3-0.8-4.9-1.2-8-1.2h-23v35H313
		C316.4,275,319.6,274.8,322.5,274.3z"/>
	<path class="st0" d="M336.1,296.3c-3.7-2.8-8.8-4.2-15.3-4.2h-25v35.5h26.9c3.6,0,6.6-0.4,9-1.2c2.4-0.8,4.4-2,5.8-3.4
		c1.5-1.4,2.5-3.1,3.1-5.2c0.6-2,0.9-4.2,0.9-6.5v-3.7C341.6,302.9,339.7,299.1,336.1,296.3z"/>
	<path class="st0" d="M248,160c-13.2,0-24-10.8-24-24V0H24C10.7,0,0,10.7,0,24v464c0,13.3,10.7,24,24,24h336c13.3,0,24-10.7,24-24
		V160H248z M165.2,230.9c-0.1,0.4-0.1,0.8-0.2,1.3c-2,9-4,17.8-6,26.4c-2,8.6-4.1,17.2-6.2,25.7c-2.1,8.5-4.4,17-6.6,25.5
		c-2.3,8.5-4.7,17.2-7.1,26.1c-1,3.6-2.6,6.3-4.7,8.2c-2.1,1.9-4.7,2.8-7.8,2.8c-2.8,0-5.3-0.9-7.6-2.7c-2.3-1.8-3.9-4.5-4.9-7.9
		c-3.6-13.1-7.1-26-10.3-38.7c-3.2-12.7-6.4-25.5-9.5-38.6c-3.1,13-6.3,25.9-9.6,38.6c-3.3,12.7-6.8,25.6-10.4,38.7
		c-0.9,3.5-2.5,6.1-4.7,7.9c-2.2,1.8-4.7,2.7-7.6,2.7c-3.1,0-5.7-0.9-7.8-2.8c-2.1-1.9-3.7-4.6-4.7-8.2c-2.5-8.9-5-17.5-7.3-26.1
		c-2.3-8.5-4.5-17-6.7-25.5c-2.1-8.5-4.2-17.1-6.2-25.7c-2-8.6-4-17.4-6-26.4c-0.1-0.4-0.2-0.9-0.2-1.3c0-0.4,0-0.8,0-1.3
		c0-1.4,0.3-2.6,0.8-3.7c0.5-1.1,1.3-2,2.2-2.8c0.9-0.8,1.9-1.4,3.1-1.8c1.2-0.4,2.3-0.6,3.5-0.6c1.9,0,3.7,0.6,5.4,1.8
		c1.7,1.2,2.9,3.1,3.5,5.7c1.5,7.4,3.1,14.7,4.8,21.9c1.7,7.2,3.3,14.4,5.1,21.6c1.7,7.2,3.5,14.4,5.4,21.6
		c1.8,7.2,3.8,14.5,5.7,21.8c3.8-14.2,7.4-28.1,10.7-41.8c3.4-13.7,6.5-27.4,9.4-41.1c0.7-3.2,1.9-5.9,3.8-8.1
		c1.8-2.1,4.4-3.2,7.7-3.2c1.8,0,3.3,0.3,4.6,0.8c1.3,0.6,2.4,1.3,3.3,2.4c0.9,1,1.6,2.2,2.1,3.6c0.5,1.4,1,2.9,1.3,4.5
		c3,13.7,6.1,27.4,9.4,41.1c3.3,13.7,6.9,27.6,10.7,41.8c2-7.3,4-14.6,5.9-21.8c1.9-7.2,3.7-14.4,5.4-21.6c1.7-7.2,3.4-14.4,5-21.6
		c1.6-7.2,3.2-14.5,4.8-21.9c0.5-2.6,1.6-4.5,3.3-5.7c1.7-1.2,3.6-1.8,5.7-1.8c1.2,0,2.3,0.2,3.5,0.6c1.2,0.4,2.2,1,3.1,1.8
		c0.9,0.8,1.6,1.7,2.2,2.8c0.5,1.1,0.8,2.3,0.8,3.7C165.3,230,165.3,230.4,165.2,230.9z M256.2,339.8c-0.5,1.1-1.1,2.1-1.9,2.9
		c-0.8,0.8-1.8,1.5-2.9,1.9c-1.1,0.5-2.3,0.7-3.5,0.7h-57c-1.3,0-2.4-0.2-3.5-0.7c-1.1-0.5-2.1-1.1-2.9-1.9s-1.5-1.8-1.9-2.9
		c-0.5-1.1-0.7-2.3-0.7-3.6V231.5c0-1.3,0.2-2.5,0.7-3.6c0.5-1.1,1.1-2.1,1.9-3c0.8-0.9,1.8-1.5,2.9-2c1.1-0.5,2.3-0.7,3.5-0.7h54.6
		c1.3,0,2.4,0.2,3.5,0.7c1.1,0.5,2.1,1.2,2.9,2c0.8,0.9,1.5,1.8,2,3c0.5,1.1,0.7,2.3,0.7,3.6c0,1.3-0.2,2.4-0.7,3.5
		c-0.5,1.1-1.2,2.1-2,2.9s-1.8,1.5-2.9,1.9c-1.1,0.5-2.3,0.7-3.5,0.7H201v34.3h40.4c1.2,0,2.4,0.2,3.4,0.7c1.1,0.5,2,1.1,2.8,1.9
		c0.8,0.8,1.5,1.8,1.9,2.9c0.5,1.1,0.7,2.3,0.7,3.5s-0.2,2.4-0.7,3.4c-0.5,1.1-1.1,2-1.9,2.8c-0.8,0.8-1.8,1.4-2.8,1.9
		c-1.1,0.5-2.2,0.7-3.4,0.7H201V327h46.9c1.3,0,2.4,0.2,3.5,0.7c1.1,0.5,2.1,1.2,2.9,2c0.8,0.8,1.5,1.8,1.9,2.9
		c0.5,1.1,0.7,2.3,0.7,3.6C256.9,337.5,256.7,338.7,256.2,339.8z M360.8,313.8c0,4.5-0.7,8.6-2,12.4c-1.3,3.8-3.5,7.2-6.4,10
		c-3,2.9-6.9,5.1-11.7,6.7c-4.8,1.6-10.7,2.4-17.7,2.4h-36.8c-1.4,0-2.7-0.2-3.8-0.7c-1.2-0.5-2.2-1.2-3-2c-0.9-0.9-1.5-1.9-2-3.1
		c-0.5-1.2-0.7-2.5-0.7-3.8V231.8c0-1.3,0.2-2.6,0.7-3.8c0.5-1.2,1.2-2.2,2-3.1c0.9-0.9,1.9-1.5,3.1-2.1c1.2-0.5,2.5-0.8,3.8-0.8
		h32.9c6.7,0,12.3,0.9,17,2.6c4.7,1.7,8.5,4,11.4,6.8c2.9,2.8,5.1,6.1,6.4,9.8c1.3,3.7,2,7.5,2,11.5v4.9c0,5.8-1.3,10.7-4,14.9
		c-2.6,4.1-6.5,7.3-11.7,9.5c3.3,1,6.2,2.4,8.8,4.2c2.5,1.8,4.7,3.9,6.5,6.2c1.8,2.4,3.1,5,4,7.8c0.9,2.8,1.4,5.8,1.4,8.9V313.8z"/>
</g>
</svg>
