<svg width="40" height="40" viewBox="0 0 40 40" fill="none" xmlns="http://www.w3.org/2000/svg">
<path d="M32.6595 22.6587C36.7607 26.76 39.3444 32.1348 39.9859 37.8993L39.9882 37.9173C40.121 39.111 39.1125 40.1204 37.9187 39.9884C32.1469 39.351 26.7644 36.7663 22.6582 32.6603L16.7677 26.7696L26.769 16.7681L32.6595 22.6587ZM2.07124 2.07128C4.83288 -0.690428 9.31089 -0.690428 12.0725 2.07128L13.7725 3.77128L16.6287 0.915817C17.8489 -0.304491 19.8278 -0.304491 21.0473 0.915817L29.1815 9.05017C29.6697 9.53845 29.6697 10.3299 29.1815 10.8181L27.4143 12.5853C26.9261 13.0736 26.1347 13.0736 25.6464 12.5853L18.838 5.77674L17.3076 7.3072L25.0011 15.0001L14.9998 25.0017L2.07124 12.0728C-0.690411 9.3111 -0.690411 4.83377 2.07124 2.07128Z" fill="#FFFFFF"/>
</svg>
