<svg width="320" height="256" viewBox="0 0 320 256" fill="none" xmlns="http://www.w3.org/2000/svg">
<g clip-path="url(#clip0_530_3992)">
<path d="M104 176C102.805 176 101.61 176.175 100.47 176.545C93.9898 178.65 87.1748 180 79.9998 180C72.8248 180 66.0098 178.65 59.5248 176.545C58.3848 176.175 57.1948 176 55.9998 176C24.9698 176 -0.165169 201.24 -0.000168823 232.31C0.0698312 245.44 10.8648 256 23.9998 256H136C149.135 256 159.93 245.44 160 232.31C160.165 201.24 135.03 176 104 176ZM79.9998 160C106.51 160 128 138.51 128 112C128 85.49 106.51 64 79.9998 64C53.4898 64 31.9998 85.49 31.9998 112C31.9998 138.51 53.4898 160 79.9998 160ZM296 0H104C90.7648 0 79.9998 11.125 79.9998 24.795V48C91.7098 48 102.55 51.39 112 56.9V32H288V176H256V144H192V176H153.88C163.43 184.345 170.44 195.365 173.725 208H296C309.235 208 320 196.875 320 183.205V24.795C320 11.125 309.235 0 296 0Z" fill="#371376"/>
</g>
<defs>
<clipPath id="clip0_530_3992">
<rect width="320" height="256" fill="white"/>
</clipPath>
</defs>
</svg>
