<svg xmlns="http://www.w3.org/2000/svg" width="216" height="160"><path fill="#FFF" d="M106.85 10.2l8.19 1.26a64.12 64.12 0 0 1 52.66 51.03 63.73 63.73 0 0 1-41.37 71.06l-1.63.46a69.9 69.9 0 0 1 1.4-7.79c0-.86 1.48-1.56 2.5-2.02a55.63 55.63 0 1 0-47.85-1.02 6.08 6.08 0 0 1 4.21 5.38c0 1.56.47 3.2.78 5.3a62.33 62.33 0 0 1-42.7-51.5A62.33 62.33 0 0 1 92.6 12.24c3.5-.7 7.09-1.1 10.67-1.64l3.58-.4z"/><path fill="#FFF" d="M104.36 150.45a24 24 0 0 1-12.08-19.79 194.3 194.3 0 0 1-2.1-26.96A13.95 13.95 0 0 1 105.76 90a14.5 14.5 0 0 1 14.34 14.17 106.6 106.6 0 0 1-3.12 29.84 23.76 23.76 0 0 1-11.6 16.44h-1.02z"/><path fill="#FFF" d="M126.88 109.16v-8.65c.16-.87.6-1.66 1.24-2.26a32.41 32.41 0 0 0 8.42-34.28 31.86 31.86 0 0 0-26.65-22.6 33.27 33.27 0 0 0-38.17 28.05 32.1 32.1 0 0 0 8.57 27.74c1.72 1.6 2.5 4 2.02 6.31 0 1.71 0 3.43-.54 5.22a38.95 38.95 0 0 1-18.23-40.51 40.44 40.44 0 0 1 40.12-34.9 40.36 40.36 0 0 1 40.67 30.22 40.59 40.59 0 0 1-17.45 45.66z"/><path fill="#FFF" d="M119.79 69.58a14.96 14.96 0 0 1-15.2 15.11 15.58 15.58 0 1 1 .78-30.46 14.88 14.88 0 0 1 14.42 15.33v.02z"/></svg>