<?xml version="1.0" encoding="UTF-8"?>
<svg fill="none" viewBox="0 0 36 48" xmlns="http://www.w3.org/2000/svg">
<path d="M21 0V12.75C21 13.9875 22.0125 15 23.25 15H36V45.75C36 46.9969 34.9969 48 33.75 48H2.25C1.00312 48 0 46.9969 0 45.75V2.25C0 1.00312 1.00312 0 2.25 0H21ZM36 12V11.4281C36 10.8375 35.7656 10.2656 35.3438 9.84375L26.1656 0.65625C25.7438 0.234375 25.1719 0 24.5719 0H24V12H36ZM12.5196 21.9241L25.6326 29.8982C26.2641 30.2822 26.2752 31.195 25.6532 31.5942L12.5402 40.0114C11.8746 40.4386 11 39.9607 11 39.1698V22.7785C11 21.9985 11.8532 21.5188 12.5196 21.9241Z" clip-rule="evenodd" fill="#327896" fill-rule="evenodd"/>
</svg>
