<?xml version="1.0" encoding="UTF-8"?>
<svg fill="none" viewBox="0 0 36 48" xmlns="http://www.w3.org/2000/svg">
<path d="m36 31.828v-26.906c0-1.065-0.8598-1.9219-1.9286-1.9219h-26.357c-4.2589 0-7.7143 3.4434-7.7143 7.6875v25.625c0 4.2441 3.4554 7.6875 7.7143 7.6875h26.357c1.0688 0 1.9286-0.8568 1.9286-1.9219v-1.2812c0-0.6006-0.2812-1.1451-0.7152-1.4975-0.3375-1.2332-0.3375-4.7486 0-5.9818 0.434-0.3444 0.7152-0.8889 0.7152-1.4895zm-25.714-18.098c0-0.2643 0.217-0.4805 0.4822-0.4805h17.036c0.2651 0 0.4821 0.2162 0.4821 0.4805v1.6015c0 0.2643-0.217 0.4805-0.4821 0.4805h-17.036c-0.2652 0-0.4822-0.2162-0.4822-0.4805v-1.6015zm0 5.125c0-0.2643 0.217-0.4805 0.4822-0.4805h17.036c0.2651 0 0.4821 0.2162 0.4821 0.4805v1.6015c0 0.2643-0.217 0.4805-0.4821 0.4805h-17.036c-0.2652 0-0.4822-0.2162-0.4822-0.4805v-1.6015zm20.362 20.02h-22.934c-1.4223 0-2.5714-1.1451-2.5714-2.5625 0-1.4094 1.1571-2.5625 2.5714-2.5625h22.934c-0.1527 1.3693-0.1527 3.7557 0 5.125z" fill="#00AFA0"/>
</svg>
