<svg width="39" height="48" viewBox="0 0 39 48" fill="none" xmlns="http://www.w3.org/2000/svg">
<path d="M25.5227 9.00035C27.9573 9.00035 29.9308 6.98559 29.9308 4.50018C29.9308 2.01477 27.9573 0 25.5227 0C23.0881 0 21.1145 2.01477 21.1145 4.50018C21.1145 6.98559 23.0881 9.00035 25.5227 9.00035ZM10.984 29.764L9.62483 33.0003H3.48187C1.85911 33.0003 0.543091 34.3438 0.543091 36.0005C0.543091 37.6571 1.85911 39.0006 3.48187 39.0006H10.5946C12.3625 39.0006 13.954 37.928 14.6455 36.2733L15.4528 34.3495L14.4729 33.7588C12.8823 32.7997 11.7123 31.3803 10.984 29.764ZM35.8084 20.9999H31.7648L29.3716 16.0075C28.2236 13.6121 26.1159 11.8608 23.6979 11.2317L17.1701 9.24974C14.5712 8.61221 11.8647 9.19817 9.74605 10.8567L6.10289 13.7077C4.81442 14.7156 4.57013 16.5981 5.55921 17.9135C6.54829 19.2289 8.39146 19.4754 9.67901 18.4685L13.324 15.6175C14.0284 15.0653 14.9256 14.8675 15.6447 15.0418L16.9947 15.4515L13.5545 23.6447C12.3955 26.4085 13.4342 29.6458 15.9698 31.174L23.7741 35.8776L21.2514 44.1027C20.7665 45.6833 21.6288 47.3662 23.1772 47.8612C23.4701 47.955 23.7658 48 24.057 48C25.3069 48 26.4658 47.1778 26.8598 45.8952L29.7655 36.4205C30.3083 34.4732 29.5001 32.3816 27.7782 31.3212L22.1541 27.933L25.0295 20.5939L26.891 24.4781C27.6257 26.0101 29.1796 26.9992 30.8501 26.9992H35.8084C37.4312 26.9992 38.7472 25.6557 38.7472 23.9991C38.7472 22.3424 37.4312 20.9999 35.8084 20.9999Z" fill="#412878"/>
</svg>
