<svg width="92" height="73" viewBox="0 0 92 73" fill="none" xmlns="http://www.w3.org/2000/svg">
<path d="M20.5553 0C23.5839 0 26.4885 1.20173 28.6301 3.34081C30.7717 5.4799 31.9749 8.38112 31.9749 11.4062C31.9749 14.4314 30.7717 17.3326 28.6301 19.4717C26.4885 21.6108 23.5839 22.8125 20.5553 22.8125C17.5266 22.8125 14.622 21.6108 12.4804 19.4717C10.3388 17.3326 9.13567 14.4314 9.13567 11.4062C9.13567 8.38112 10.3388 5.4799 12.4804 3.34081C14.622 1.20173 17.5266 0 20.5553 0ZM73.0854 0C76.114 0 79.0187 1.20173 81.1603 3.34081C83.3018 5.4799 84.505 8.38112 84.505 11.4062C84.505 14.4314 83.3018 17.3326 81.1603 19.4717C79.0187 21.6108 76.114 22.8125 73.0854 22.8125C70.0567 22.8125 67.1521 21.6108 65.0105 19.4717C62.8689 17.3326 61.6658 14.4314 61.6658 11.4062C61.6658 8.38112 62.8689 5.4799 65.0105 3.34081C67.1521 1.20173 70.0567 0 73.0854 0ZM0 42.5881C0 34.1902 6.8232 27.375 15.2309 27.375H21.3261C23.5957 27.375 25.7512 27.874 27.6925 28.758C27.5069 29.7846 27.4213 30.8539 27.4213 31.9375C27.4213 37.384 29.8194 42.2744 33.6021 45.625C33.5736 45.625 33.545 45.625 33.5022 45.625H3.04047C1.37035 45.625 0 44.2563 0 42.5881ZM57.8545 45.625C57.826 45.625 57.7974 45.625 57.7546 45.625C61.5516 42.2744 63.9354 37.384 63.9354 31.9375C63.9354 30.8539 63.8355 29.7988 63.6642 28.758C65.6055 27.8598 67.761 27.375 70.0306 27.375H76.1258C84.5335 27.375 91.3567 34.1902 91.3567 42.5881C91.3567 44.2705 89.9864 45.625 88.3163 45.625H57.8545ZM31.9749 31.9375C31.9749 28.3073 33.4186 24.8259 35.9885 22.259C38.5584 19.6921 42.044 18.25 45.6784 18.25C49.3128 18.25 52.7983 19.6921 55.3682 22.259C57.9381 24.8259 59.3819 28.3073 59.3819 31.9375C59.3819 35.5677 57.9381 39.0491 55.3682 41.616C52.7983 44.1829 49.3128 45.625 45.6784 45.625C42.044 45.625 38.5584 44.1829 35.9885 41.616C33.4186 39.0491 31.9749 35.5677 31.9749 31.9375ZM18.2713 69.1932C18.2713 58.6994 26.7932 50.1875 37.2992 50.1875H54.0575C64.5635 50.1875 73.0854 58.6994 73.0854 69.1932C73.0854 71.2891 71.3867 73 69.2741 73H22.0826C19.9843 73 18.2713 71.3033 18.2713 69.1932Z" fill="#371376"/>
</svg>
