<svg xmlns="http://www.w3.org/2000/svg" xmlns:xlink="http://www.w3.org/1999/xlink" version="1.1" id="Layer_1" x="0" y="0" width="216" height="160" viewBox="0 0 216 160" enable-background="new 0 0 216 160" xml:space="preserve">
  <path fill="#1847BF" d="M118.05 111.13H94.58c-1.08 0-1.92 0.36-2.75 1.2 -0.84 0.84-1.2 1.68-1.2 2.76v23.47c0 1.08 0.36 1.92 1.2 2.75s1.68 1.2 2.75 1.2h23.47c1.08 0 1.92-0.36 2.75-1.2 0.84-0.84 1.2-1.68 1.2-2.75v-23.47c0-1.08-0.36-1.91-1.2-2.75C119.96 111.49 119.12 111.13 118.05 111.13zM148.7 41.09c-2.63-4.91-6.1-9.1-10.3-12.45 -4.19-3.35-8.98-6.11-14.25-8.14 -5.27-2.03-10.54-2.99-15.68-2.99 -19.76 0-34.84 8.62-45.26 25.98 -0.48 0.84-0.72 1.8-0.48 2.75 0.12 0.96 0.72 1.8 1.56 2.4L80.33 60.84c0.84 0.48 1.68 0.84 2.4 0.84 1.2 0 2.15-0.48 2.99-1.56 4.67-5.87 8.14-9.58 10.42-11.25 2.75-1.92 6.35-2.87 10.54-2.87 3.95 0 7.42 1.08 10.54 3.11 2.99 2.04 4.55 4.43 4.55 7.18 0 3.11-0.84 5.51-2.4 7.42 -1.56 1.92-4.31 3.71-8.14 5.51 -5.03 2.28-9.7 5.75-13.89 10.54s-6.34 9.82-6.34 15.33v4.43c0 1.2 0.36 2.52 1.08 3.71 0.72 1.2 1.56 1.8 2.51 1.8h23.47c1.08 0 1.92-0.48 2.75-1.56 0.84-0.96 1.2-2.03 1.2-3.11 0-1.68 0.84-3.83 2.64-6.58 1.8-2.75 4.07-4.79 6.71-6.35 2.51-1.44 4.55-2.63 5.99-3.47s3.35-2.27 5.63-4.19c2.28-1.92 4.07-3.83 5.39-5.75 1.32-1.92 2.4-4.43 3.47-7.42 0.96-3.11 1.56-6.35 1.56-9.82C152.77 51.15 151.45 46 148.7 41.09z"/>
</svg>
