<svg width="45" height="40" viewBox="0 0 45 40" fill="none" xmlns="http://www.w3.org/2000/svg">
<path d="M31.4531 6.49346L38.5 13.5417C38.7969 13.8386 38.7969 14.3231 38.5 14.62L21.4375 31.6859L14.1875 32.4907C13.2188 32.6001 12.3984 31.7796 12.5078 30.8107L13.3125 23.5593L30.375 6.49346C30.6719 6.19652 31.1562 6.19652 31.4531 6.49346ZM44.1094 4.70404L40.2969 0.890799C39.1094 -0.296933 37.1797 -0.296933 35.9844 0.890799L33.2188 3.65696C32.9219 3.9539 32.9219 4.43837 33.2188 4.7353L40.2656 11.7836C40.5625 12.0805 41.0469 12.0805 41.3438 11.7836L44.1094 9.01739C45.2969 7.82184 45.2969 5.89178 44.1094 4.70404ZM30 27.0443V34.999H5V9.99414H22.9531C23.2031 9.99414 23.4375 9.89256 23.6172 9.72065L26.7422 6.59504C27.3359 6.00117 26.9141 4.99316 26.0781 4.99316H3.75C1.67969 4.99316 0 6.67318 0 8.7439V36.2493C0 38.32 1.67969 40 3.75 40H31.25C33.3203 40 35 38.32 35 36.2493V23.9187C35 23.0826 33.9922 22.6685 33.3984 23.2545L30.2734 26.3802C30.1016 26.5599 30 26.7943 30 27.0443Z" fill="#C8194B"/>
</svg>
