<?xml version="1.0" encoding="utf-8"?>
<!-- Generator: Adobe Illustrator 22.1.0, SVG Export Plug-In . SVG Version: 6.00 Build 0)  -->
<svg version="1.1" id="Layer_1" xmlns="http://www.w3.org/2000/svg" xmlns:xlink="http://www.w3.org/1999/xlink" x="0px" y="0px"
	 viewBox="0 0 216 160" style="enable-background:new 0 0 216 160;" xml:space="preserve">
<style type="text/css">
	.st0{fill:#371376;}
</style>
<path class="st0" d="M54.6,48.2h106.8c2.3,0,4.1-1.8,4.1-4.1V33.8c0-2.3-1.8-4.1-4.1-4.1H54.6c-2.3,0-4.1,1.8-4.1,4.1v10.3
	C50.5,46.3,52.3,48.2,54.6,48.2z"/>
<path class="st0" d="M54.6,89.2h106.8c2.3,0,4.1-1.8,4.1-4.1V74.9c0-2.3-1.8-4.1-4.1-4.1H54.6c-2.3,0-4.1,1.8-4.1,4.1v10.3
	C50.5,87.4,52.3,89.2,54.6,89.2z"/>
<path class="st0" d="M54.6,130.3h106.8c2.3,0,4.1-1.8,4.1-4.1v-10.3c0-2.3-1.8-4.1-4.1-4.1H54.6c-2.3,0-4.1,1.8-4.1,4.1v10.3
	C50.5,128.5,52.3,130.3,54.6,130.3z"/>
</svg>
