<svg xmlns="http://www.w3.org/2000/svg" xmlns:xlink="http://www.w3.org/1999/xlink" version="1.1" id="Layer_1" x="0" y="0" width="216" height="160" viewBox="0 0 216 160" enable-background="new 0 0 216 160" xml:space="preserve">
  <path fill="#1847BF" d="M156.5 109.5c0 2.19-0.8 3.98-2.29 5.57l-11.14 11.14c-1.49 1.49-3.38 2.29-5.57 2.29s-3.98-0.8-5.57-2.29l-23.98-24.08 -23.98 24.08c-1.49 1.49-3.38 2.29-5.57 2.29 -2.19 0-3.98-0.8-5.57-2.29l-11.04-11.14c-1.49-1.49-2.29-3.38-2.29-5.57s0.8-3.98 2.29-5.57L85.77 79.95 61.79 55.97c-1.49-1.49-2.29-3.38-2.29-5.57 0-2.19 0.8-3.98 2.29-5.57l11.14-11.04c1.49-1.49 3.28-2.29 5.47-2.29 2.19 0 3.98 0.8 5.57 2.29l23.98 23.98 23.98-23.98c1.59-1.49 3.38-2.29 5.57-2.29 2.19 0 4.08 0.8 5.57 2.29l11.14 11.14c1.49 1.49 2.29 3.38 2.29 5.57s-0.8 3.98-2.29 5.57L130.14 79.95l23.98 23.98C155.7 105.52 156.5 107.31 156.5 109.5z"/>
</svg>
