<svg xmlns="http://www.w3.org/2000/svg" xmlns:xlink="http://www.w3.org/1999/xlink" version="1.1" id="Layer_1" x="0" y="0" width="216" height="160" viewBox="0 0 216 160" enable-background="new 0 0 216 160" xml:space="preserve">
  <g enable-background="new    ">
    <path fill="#FFFFFF" d="M106 145l-32.7-32.7c-0.6-0.6-0.8-1.2-0.8-2 0-0.8 0.3-1.4 0.8-2l7.3-7.3c0.6-0.6 1.2-0.8 2-0.8 0.8 0 1.4 0.3 2 0.8l23.4 23.4 23.4-23.4c0.6-0.6 1.2-0.8 2-0.8 0.8 0 1.4 0.3 2 0.8l7.3 7.3c0.6 0.6 0.8 1.2 0.8 2 0 0.8-0.3 1.4-0.8 2L109.9 145c-0.6 0.6-1.2 0.8-2 0.8C107.2 145.8 106.5 145.6 106 145z"/>
  </g>
  <g enable-background="new    ">
    <path fill="#FFFFFF" d="M108.05 14.2c0.8 0 1.4 0.3 2 0.8l32.7 32.7c0.6 0.6 0.8 1.2 0.8 2s-0.3 1.4-0.8 2l-7.3 7.3c-0.6 0.6-1.2 0.8-2 0.8 -0.8 0-1.4-0.3-2-0.8l-23.4-23.4L84.55 59c-0.6 0.6-1.2 0.8-2 0.8 -0.8 0-1.4-0.3-2-0.8l-7.3-7.3c-0.6-0.6-0.8-1.2-0.8-2s0.3-1.4 0.8-2l32.7-32.7C106.55 14.4 107.25 14.2 108.05 14.2z"/>
  </g>
</svg>
