<svg width="48" height="48" viewBox="0 0 48 48" fill="none" xmlns="http://www.w3.org/2000/svg">
<path d="M24 0C10.7419 0 0 10.7419 0 24C0 37.2581 10.7419 48 24 48C37.2581 48 48 37.2581 48 24C48 10.7419 37.2581 0 24 0ZM24 43.3548C13.3258 43.3548 4.64516 34.6742 4.64516 24C4.64516 13.3258 13.3258 4.64516 24 4.64516C34.6742 4.64516 43.3548 13.3258 43.3548 24C43.3548 34.6742 34.6742 43.3548 24 43.3548ZM32.129 29.4774C30.1161 31.8968 27.1452 33.2903 24 33.2903C20.8548 33.2903 17.8839 31.9065 15.871 29.4774C15.0484 28.4903 13.5871 28.3645 12.6 29.1774C11.6129 30 11.4871 31.4613 12.3 32.4484C15.2032 35.9323 19.471 37.9258 24 37.9258C28.529 37.9258 32.7968 35.9323 35.7 32.4484C36.5226 31.4613 36.3871 30 35.4 29.1774C34.4129 28.3645 32.9516 28.4903 32.129 29.4774V29.4774ZM13.2097 19.6452C13.9548 18.3194 15.0677 17.5548 16.2581 17.5548C17.4484 17.5548 18.5613 18.3194 19.3065 19.6452L20.2258 21.2903C20.429 21.6484 20.8258 21.7452 21.1258 21.6484C21.4742 21.5419 21.7065 21.2129 21.6774 20.8452C21.3581 16.771 18.5613 13.9355 16.2581 13.9355C13.9548 13.9355 11.1581 16.771 10.8387 20.8452C10.8097 21.2032 11.0419 21.5419 11.3903 21.6484C11.7194 21.7548 12.1065 21.6 12.2903 21.2903L13.2097 19.6452ZM31.7419 13.9355C29.4387 13.9355 26.6419 16.771 26.3226 20.8452C26.2935 21.2032 26.5258 21.5419 26.8742 21.6484C27.2129 21.7548 27.5903 21.6 27.7742 21.2903L28.6935 19.6452C29.4387 18.3194 30.5516 17.5548 31.7419 17.5548C32.9323 17.5548 34.0452 18.3194 34.7903 19.6452L35.7097 21.2903C35.9129 21.6484 36.3097 21.7452 36.6097 21.6484C36.9581 21.5419 37.1903 21.2129 37.1613 20.8452C36.8419 16.771 34.0452 13.9355 31.7419 13.9355Z" fill="#371376"/>
</svg>
