<svg width="43" height="48" viewBox="0 0 43 48" fill="none" xmlns="http://www.w3.org/2000/svg">
<path d="M30.0113 30.0571L21.0679 39.0004L12.1246 30.0571C5.42183 30.3477 0.0689697 35.8318 0.0689697 42.6003V43.5002C0.0689697 45.9845 2.0845 48 4.56875 48H37.5671C40.0514 48 42.0669 45.9845 42.0669 43.5002V42.6003C42.0669 35.8318 36.7141 30.3477 30.0113 30.0571V30.0571ZM1.34391 7.48323L1.94388 7.62385V13.0986C1.28766 13.4923 0.818933 14.1767 0.818933 15.0016C0.818933 15.7891 1.25016 16.4453 1.85951 16.8484L0.397079 22.6887C0.237711 23.3356 0.593944 24.0012 1.10954 24.0012H5.0281C5.5437 24.0012 5.89993 23.3356 5.74057 22.6887L4.27814 16.8484C4.88748 16.4453 5.31871 15.7891 5.31871 15.0016C5.31871 14.1767 4.84999 13.4923 4.19377 13.0986V8.16757L10.381 9.65812C9.57475 11.2705 9.06853 13.0705 9.06853 15.0016C9.06853 21.6294 14.4401 27.001 21.0679 27.001C27.6957 27.001 33.0674 21.6294 33.0674 15.0016C33.0674 13.0705 32.5705 11.2705 31.7549 9.65812L40.7826 7.48323C42.4888 7.07075 42.4888 4.94273 40.7826 4.53025L22.9335 0.217958C21.7148 -0.0726527 20.4305 -0.0726527 19.2118 0.217958L1.34391 4.52087C-0.352885 4.93335 -0.352885 7.07075 1.34391 7.48323V7.48323Z" fill="#371376"/>
</svg>
