<?xml version="1.0" encoding="utf-8"?>
<!-- Generator: Adobe Illustrator 16.0.0, SVG Export Plug-In . SVG Version: 6.00 Build 0)  -->
<!DOCTYPE svg PUBLIC "-//W3C//DTD SVG 1.1//EN" "http://www.w3.org/Graphics/SVG/1.1/DTD/svg11.dtd">
<svg version="1.1" id="Layer_1" xmlns="http://www.w3.org/2000/svg" xmlns:xlink="http://www.w3.org/1999/xlink" x="0px" y="0px"
	 width="216px" height="160px" viewBox="0 0 216 160" enable-background="new 0 0 216 160" xml:space="preserve">
<path fill="#C8194B" d="M156.5,109.5c0,2.189-0.8,3.98-2.29,5.57l-11.14,11.14c-1.49,1.49-3.381,2.29-5.57,2.29s-3.98-0.8-5.57-2.29
	l-23.979-24.08l-23.98,24.08c-1.49,1.49-3.38,2.29-5.57,2.29s-3.98-0.8-5.57-2.29l-11.04-11.14c-1.49-1.49-2.29-3.381-2.29-5.57
	s0.8-3.98,2.29-5.57L85.77,79.95L61.79,55.97c-1.49-1.49-2.29-3.38-2.29-5.57s0.8-3.98,2.29-5.57l11.14-11.04
	c1.49-1.49,3.28-2.29,5.47-2.29s3.98,0.8,5.57,2.29l23.98,23.98l23.979-23.98c1.59-1.49,3.381-2.29,5.57-2.29s4.08,0.8,5.57,2.29
	l11.14,11.14c1.49,1.49,2.29,3.38,2.29,5.57s-0.8,3.98-2.29,5.57l-24.069,23.88l23.979,23.979
	C155.7,105.52,156.5,107.311,156.5,109.5z"/>
</svg>
