<svg width="55" height="73" viewBox="0 0 55 73" fill="none" xmlns="http://www.w3.org/2000/svg">
<path d="M45.625 66.1562C46.8797 66.1562 47.9062 65.1297 47.9062 63.875V22.8125H36.5C33.9764 22.8125 31.9375 20.7736 31.9375 18.25V6.84375H9.125C7.87031 6.84375 6.84375 7.87031 6.84375 9.125V63.875C6.84375 65.1297 7.87031 66.1562 9.125 66.1562H45.625ZM0 9.125C0 4.09199 4.09199 0 9.125 0H32.7217C35.1455 0 37.4695 0.955274 39.1805 2.66621L52.0838 15.5695C53.7947 17.2805 54.75 19.6045 54.75 22.0283V63.875C54.75 68.908 50.658 73 45.625 73H9.125C4.09199 73 0 68.908 0 63.875V9.125Z" fill="#371376"/>
</svg>
