<svg xmlns="http://www.w3.org/2000/svg" xmlns:xlink="http://www.w3.org/1999/xlink" version="1.1" id="Layer_1" x="0" y="0" width="216" height="160" viewBox="0 0 216 160" enable-background="new 0 0 216 160" xml:space="preserve">
  <path fill="#371376" d="M131.35 16.55c-2.8 0-5.3 1-7.3 3L71.15 72.65c-2.1 2.1-3.1 4.5-3.1 7.4 0 2.9 1 5.3 3.1 7.3l53 53c1.9 2.1 4.4 3.1 7.3 3.1 2.9 0 5.3-1 7.4-3.1l6.1-6c2-2.1 3-4.6 3-7.4 0-2.8-1-5.3-3-7.3l-39.6-39.6 39.6-39.7c2-2 3-4.4 3-7.3 0-2.8-1-5.3-3-7.4l-6.1-6.1C136.75 17.55 134.25 16.55 131.35 16.55z"/>
</svg>
