<svg width="40" height="40" fill="none" xmlns="http://www.w3.org/2000/svg"><path d="M21.113 5.338a2.002 2.002 0 0 0-2.226 0L10.394 11H3a3 3 0 0 0-3 3v20a3 3 0 0 0 3 3h17-4v-6c0-2.206 1.794-4 4-4h.05a10.919 10.919 0 0 1 2.637-6.194c-.8.444-1.712.694-2.687.694a5.5 5.5 0 1 1 5.5-5.5 5.51 5.51 0 0 1-.944 3.087A11 11 0 0 1 40 21.675V14a3 3 0 0 0-3-3h-7.394l-8.494-5.662zM6 17h2c.55 0 1 .45 1 1v4c0 .55-.45 1-1 1H6c-.55 0-1-.45-1-1v-4c0-.55.45-1 1-1zm0 8h2c.55 0 1 .45 1 1v4c0 .55-.45 1-1 1H6c-.55 0-1-.45-1-1v-4c0-.55.45-1 1-1zm14-12c-.55 0-1 .45-1 1v2c0 .55.45 1 1 1h2c.55 0 1-.45 1-1s-.45-1-1-1h-1v-1c0-.55-.45-1-1-1zm20 15a9 9 0 1 0-18 0 9 9 0 0 0 18 0zm-6.206-2.706a1.003 1.003 0 0 1 1.412 0 1.003 1.003 0 0 1 0 1.412l-4.5 4.5a1.003 1.003 0 0 1-1.412 0l-2.5-2.5a1.003 1.003 0 0 1 0-1.412 1.003 1.003 0 0 1 1.412 0L30 29.087l3.794-3.793z" fill="#fff"/></svg>