<svg id="Layer_1" data-name="Layer 1" xmlns="http://www.w3.org/2000/svg" width="216" height="160" viewBox="0 0 216 160"><title>c-icon__info--grey</title><path d="M108,29.33A50.67,50.67,0,1,0,158.67,80,50.68,50.68,0,0,0,108,29.33Zm0,22.48a8.58,8.58,0,1,1-8.58,8.58A8.58,8.58,0,0,1,108,51.81Zm11.44,51.89a2.45,2.45,0,0,1-2.45,2.45H99a2.45,2.45,0,0,1-2.45-2.45V98.8A2.46,2.46,0,0,1,99,96.34h2.45V83.27H99a2.45,2.45,0,0,1-2.45-2.45V75.91A2.45,2.45,0,0,1,99,73.46h13.08a2.45,2.45,0,0,1,2.45,2.45V96.34H117a2.46,2.46,0,0,1,2.45,2.46Z" style="fill:#FFFFFF"/></svg>