<svg xmlns="http://www.w3.org/2000/svg" fill="none" viewBox="0 0 24 24">
  <path fill="#C8194B" d="m21.7263 19.2913-3.8941-3.8942c-.1758-.1757-.414-.2734-.664-.2734h-.6367c1.0781-1.3788 1.7186-3.113 1.7186-4.9995C18.2501 5.63636 14.6138 2 10.1259 2c-4.48783 0-8.12419 3.63636-8.12419 8.1242 0 4.4878 3.63636 8.1242 8.12419 8.1242 1.8866 0 3.6208-.6405 4.9995-1.7186v.6367c0 .25.0977.4882.2734.664l3.8942 3.8941c.3671.3672.9608.3672 1.3241 0l1.1053-1.1053c.3672-.3672.3672-.9609.0039-1.328Zm-11.6004-4.1676c-2.76143 0-4.9995-2.2341-4.9995-4.9995 0-2.76144 2.23416-4.99951 4.9995-4.99951 2.7615 0 4.9995 2.23416 4.9995 4.99951 0 2.7615-2.2341 4.9995-4.9995 4.9995Z"/>
</svg>
