<svg version="1.1" id="Layer_1" xmlns="http://www.w3.org/2000/svg" xmlns:xlink="http://www.w3.org/1999/xlink" x="0px" y="0px"
                width="58.875px" height="58.838px" viewBox="0 0 58.875 58.838" enable-background="new 0 0 58.875 58.838" xml:space="preserve">
<path opacity="0.2" fill="#fff" enable-background="new    " d="M29.438,0C13.222,0,0,13.182,0,29.438
                c0,16.256,13.222,29.401,29.438,29.401c16.256,0,29.438-13.145,29.438-29.401C58.875,13.182,45.693,0,29.438,0z M29.438,52.341
                c-12.602,0-22.903-10.258-22.903-22.903c0-12.605,10.301-22.903,22.903-22.903c12.645,0,22.907,10.298,22.907,22.903
                C52.344,42.083,42.083,52.341,29.438,52.341z"/>
<path fill="#fff" d="M29.054,6.611c0.117,0,0.27-0.077,0.383-0.077c12.645,0,22.907,10.298,22.907,22.903h6.531
                C58.875,13.182,45.693,0,29.438,0c-0.113,0-0.267,0.077-0.383,0.077V6.611z">
<animateTransform attributeType="xml"
     attributeName="transform"
     type="rotate"
     from="0 30 30"
     to="360 30 30"
     dur="1.1s"
     repeatCount="indefinite"/>     
</path>
</svg>
