<?xml version="1.0" encoding="utf-8"?>
<!-- Generator: Adobe Illustrator 24.0.0, SVG Export Plug-In . SVG Version: 6.00 Build 0)  -->
<svg version="1.1" id="Layer_1" xmlns="http://www.w3.org/2000/svg" xmlns:xlink="http://www.w3.org/1999/xlink" x="0px" y="0px"
	 viewBox="0 0 216 160" style="enable-background:new 0 0 216 160;" xml:space="preserve">
<style type="text/css">
	.st0{fill:#C8194B;}
</style>
<title>c-icon__external-link--blue3-01</title>
<path class="st0" d="M126.3,124.2h-17.7c-2.4,0-4.4,2-4.4,4.4v8.8c0,2.4,2,4.4,4.4,4.4h17.7c2.4,0,4.4-2,4.4-4.4v-8.8
	C130.7,126.2,128.7,124.2,126.3,124.2z M90.9,106.5H77.6v-84c0-2.4-2-4.4-4.4-4.4h-8.8c-2.4,0-4.4,2-4.4,4.4v84H46.7
	c-3.9,0-5.9,4.8-3.1,7.5l22.1,26.5c1.7,1.7,4.5,1.7,6.3,0L94,114.1C96.8,111.3,94.8,106.5,90.9,106.5z M161.6,53.5h-53.1
	c-2.4,0-4.4,2-4.4,4.4v8.8c0,2.4,2,4.4,4.4,4.4h53.1c2.4,0,4.4-2,4.4-4.4v-8.8C166.1,55.4,164.1,53.5,161.6,53.5z M144,88.8h-35.4
	c-2.4,0-4.4,2-4.4,4.4v8.8c0,2.4,2,4.4,4.4,4.4H144c2.4,0,4.4-2,4.4-4.4v-8.8C148.4,90.8,146.4,88.8,144,88.8z M179.3,18.1h-70.7
	c-2.4,0-4.4,2-4.4,4.4v8.8c0,2.4,2,4.4,4.4,4.4h70.7c2.4,0,4.4-2,4.4-4.4v-8.8C183.8,20.1,181.8,18.1,179.3,18.1z"/>
</svg>
